<svg width="22" height="23" viewBox="0 0 22 23" fill="none" xmlns="http://www.w3.org/2000/svg">
<g clip-path="url(#clip0_213_326)">
<path d="M10.999 22.5C15.82 22.5 18.499 22.5 20.249 20.75C22 19 22 16.32 22 11.5C22 6.68 22 4.001 20.249 2.251C18.499 0.5 15.82 0.5 10.999 0.5C6.179 0.5 3.5 0.5 1.749 2.251C0 4 0 6.681 0 11.5C0 16.32 0 19 1.749 20.75C3.5 22.499 6.179 22.5 10.999 22.5Z" fill="black"/>
<path d="M5.411 10.074L12.051 10.087L12.427 8.45299L18.087 8.43399L17.422 10.061L12.056 10.087L11.685 11.721L5.41 11.709L5.411 10.074ZM5.411 6.79999L11.46 6.81299C12.144 6.81299 12.646 7.47399 12.489 8.16199L12.426 8.44699L5.41 8.43499L5.411 6.79999ZM11.677 11.721L15.649 11.728L15.066 13.362L11.308 13.355L10.939 14.987H10.93C10.716 15.811 11.319 16.628 12.147 16.628H13.295L13.929 14.987H10.939L5.41 14.975V13.341L11.308 13.353L11.677 11.721Z" fill="white"/>
</g>
<defs>
<clipPath id="clip0_213_326">
<rect width="22" height="22" fill="white" transform="translate(0 0.5)"/>
</clipPath>
</defs>
</svg>
