<svg width="25" height="25" viewBox="0 0 25 25" fill="none" xmlns="http://www.w3.org/2000/svg">
<path fill-rule="evenodd" clip-rule="evenodd" d="M7.23125 3.99175C7.20325 2.70175 6.27625 1.71875 4.77125 1.71875C3.26525 1.71875 2.28125 2.70175 2.28125 3.99175C2.28125 5.25475 3.23625 6.26575 4.71325 6.26575H4.74125C6.27625 6.26575 7.23125 5.25475 7.23125 3.99175ZM6.94125 8.06175H2.54125V21.2188H6.94125V8.06175ZM17.7442 7.75275C20.6392 7.75275 22.8102 9.63275 22.8102 13.6748V21.2188H18.4102V14.1798C18.4102 12.4118 17.7733 11.2048 16.1803 11.2048C14.9653 11.2048 14.2402 12.0188 13.9222 12.8048C13.8062 13.0858 13.7773 13.4778 13.7773 13.8708V21.2188H9.37725C9.37725 21.2188 9.43525 9.29675 9.37725 8.06175H13.7773V9.92575C14.3623 9.02975 15.4072 7.75275 17.7442 7.75275Z" fill="#535768"/>
</svg>
