<svg width="22" height="22" viewBox="0 0 22 22" fill="none" xmlns="http://www.w3.org/2000/svg">
<g clip-path="url(#clip0_213_326)">
<path d="M10.999 22C15.82 22 18.499 22 20.249 20.25C22 18.5 22 15.82 22 11C22 6.18 22 3.501 20.249 1.751C18.499 0 15.82 0 10.999 0C6.179 0 3.5 0 1.749 1.751C0 3.5 0 6.181 0 11C0 15.82 0 18.5 1.749 20.25C3.5 21.999 6.179 22 10.999 22Z" fill="black"/>
<path d="M5.411 9.57399L12.051 9.58699L12.427 7.95299L18.087 7.93399L17.422 9.56099L12.056 9.58699L11.685 11.221L5.41 11.209L5.411 9.57399ZM5.411 6.29999L11.46 6.31299C12.144 6.31299 12.646 6.97399 12.489 7.66199L12.426 7.94699L5.41 7.93499L5.411 6.29999ZM11.677 11.221L15.649 11.228L15.066 12.862L11.308 12.855L10.939 14.487H10.93C10.716 15.311 11.319 16.128 12.147 16.128H13.295L13.929 14.487H10.939L5.41 14.475V12.841L11.308 12.853L11.677 11.221Z" fill="white"/>
</g>
<defs>
<clipPath id="clip0_213_326">
<rect width="22" height="22" fill="white"/>
</clipPath>
</defs>
</svg>
