<svg width="89" height="22" viewBox="0 0 89 22" fill="none" xmlns="http://www.w3.org/2000/svg">
<path d="M12.294 17.677H15.065L15.333 16.02H15.837C16.24 17.238 17.331 17.846 18.457 17.846C20.79 17.846 22.218 16.325 22.218 13.08C22.218 10.223 21.042 8.314 18.523 8.314C17.315 8.314 16.24 9.04 15.837 10.121H15.333L15.501 7.586V5H12.294V17.677ZM15.501 13.367V12.809C15.501 11.625 16.156 10.899 17.298 10.899C18.289 10.899 18.96 11.339 18.96 12.471V13.705C18.96 14.635 18.507 15.26 17.314 15.26C16.123 15.26 15.501 14.533 15.501 13.367ZM23.057 13.096C23.057 15.953 24.921 17.846 27.758 17.846C30.11 17.846 31.838 16.595 32.074 14.669H29.018C28.934 15.192 28.397 15.496 27.658 15.496C26.902 15.496 26.28 15.024 26.28 14.313V13.84H31.973C32.074 13.486 32.107 12.995 32.107 12.522C32.107 9.784 30.143 8.313 27.658 8.313C25.072 8.313 23.057 10.037 23.057 13.096ZM26.28 11.913V11.728C26.28 11.119 26.851 10.679 27.624 10.679C28.397 10.679 28.901 11.119 28.901 11.728V11.913H26.28ZM39.584 8.431C38.56 8.431 37.77 9.023 37.518 10.493H37.014L36.628 8.482H32.413V11.068H33.808V17.677H37.015V13.925C37.015 11.998 38.207 11.457 39.566 11.457C39.752 11.457 39.937 11.474 40.138 11.491V8.482C39.956 8.445 39.77 8.428 39.584 8.431ZM40.99 8.482V20.5H44.197V18.573L44.029 16.037H44.533C44.936 17.119 46.011 17.846 47.22 17.846C49.738 17.846 50.914 15.936 50.914 13.08C50.914 9.835 49.486 8.314 47.152 8.314C46.028 8.314 44.936 8.922 44.533 10.138H44.029L43.76 8.482H40.99ZM44.197 12.792C44.197 11.626 44.819 10.9 46.011 10.9C47.203 10.9 47.656 11.525 47.656 12.454V13.688C47.656 14.821 46.985 15.26 45.994 15.26C44.852 15.26 44.197 14.533 44.197 13.35V12.792ZM54.897 15.176V5H51.706V15.227C51.706 16.697 52.295 17.678 54.141 17.678H56.979V15.177H54.897V15.176ZM57.569 15.09C57.569 16.781 58.794 17.846 60.675 17.846C62.236 17.846 63.328 17.119 63.681 16.037H64.133V17.677H67.493V15.31H66.333V11.644C66.333 9.65 65.192 8.314 62.27 8.314C59.583 8.314 58.022 9.48 58.122 11.745H61.061C61.01 10.984 61.464 10.731 62.119 10.731C62.74 10.731 63.142 10.984 63.142 11.627V12.269L60.591 12.438C58.794 12.557 57.568 13.401 57.568 15.092L57.569 15.09ZM60.792 14.652C60.792 14.297 61.045 13.959 61.616 13.925L63.143 13.823V14.888C62.891 15.277 62.387 15.53 61.766 15.53C61.094 15.53 60.793 15.243 60.793 14.854L60.792 14.652ZM68.465 17.677H71.673V12.758C71.673 11.677 72.21 10.916 73.284 10.916C74.191 10.916 74.695 11.44 74.695 12.573V17.677H77.918V11.44C77.918 9.564 76.895 8.313 75.064 8.313C73.654 8.313 72.646 8.972 72.176 10.121H71.673L71.286 8.482H68.465V17.677ZM78.948 13.096C78.948 15.953 80.813 17.846 83.651 17.846C86.001 17.846 87.731 16.595 87.966 14.669H84.91C84.826 15.192 84.289 15.496 83.55 15.496C82.794 15.496 82.173 15.024 82.173 14.313V13.84H87.866C87.966 13.486 88 12.995 88 12.522C88 9.784 86.035 8.313 83.55 8.313C80.964 8.313 78.948 10.037 78.948 13.096ZM82.173 11.913V11.728C82.173 11.119 82.744 10.679 83.516 10.679C84.289 10.679 84.793 11.119 84.793 11.728V11.913H82.173ZM4.887 8.483H11.216V17.677H7.994V11.067H4.887V17.676H1.664V11.067H0V8.483H1.664V7.691C1.664 7.477 1.667 7.32 1.672 7.221C1.678 7.117 1.695 6.988 1.722 6.833C1.754 6.679 1.804 6.514 1.869 6.338C2.192 5.445 3.015 5.001 4.337 5.001H6.952V7.501H4.887V8.483ZM8.01 7.501V5H11.216V7.501H8.01Z" fill="black"/>
</svg>
