<svg width="26" height="25" viewBox="0 0 26 25" fill="none" xmlns="http://www.w3.org/2000/svg">
<path d="M12.5312 2.24675C15.5373 2.24675 15.8892 2.25975 17.0772 2.31375C18.1772 2.36275 18.7703 2.54575 19.1672 2.70175C19.6952 2.90775 20.0702 3.14875 20.4632 3.54175C20.8562 3.93475 21.1012 4.30975 21.3032 4.83675C21.4542 5.23375 21.6423 5.82775 21.6912 6.92675C21.7442 8.11475 21.7582 8.46675 21.7582 11.4727C21.7582 14.4788 21.7442 14.8317 21.6912 16.0197C21.6413 17.1187 21.4592 17.7128 21.3022 18.1098C21.1224 18.5987 20.8354 19.0412 20.4622 19.4048C20.1001 19.7792 19.6577 20.0664 19.1682 20.2447C18.7702 20.3967 18.1763 20.5847 17.0783 20.6327C15.8893 20.6868 15.5373 20.6998 12.5312 20.6998C9.52525 20.6998 9.17325 20.6868 7.98525 20.6327C6.88525 20.5837 6.29225 20.4007 5.89525 20.2447C5.40595 20.065 4.96312 19.778 4.59925 19.4048C4.22469 19.0424 3.93744 18.5995 3.75925 18.1098C3.60825 17.7128 3.42025 17.1187 3.37125 16.0197C3.31825 14.8317 3.30425 14.4797 3.30425 11.4738C3.30425 8.46775 3.31825 8.11475 3.37125 6.92675C3.42125 5.82775 3.60325 5.23375 3.76025 4.83675C3.96525 4.30975 4.20625 3.93475 4.60025 3.54175C4.96236 3.16731 5.40484 2.88008 5.89425 2.70175C6.29225 2.54975 6.88625 2.36175 7.98425 2.31375C9.17325 2.25575 9.53025 2.24675 12.5312 2.24675ZM12.5312 0.21875C9.47625 0.21875 9.09225 0.23175 7.89125 0.28575C6.69425 0.33975 5.87725 0.53175 5.16125 0.80875C4.41014 1.09113 3.73014 1.5349 3.16925 2.10875C2.5979 2.67131 2.1545 3.35039 1.86925 4.09975C1.59525 4.81475 1.40325 5.63175 1.34925 6.83275C1.29425 8.02975 1.28125 8.41375 1.28125 11.4688C1.28125 14.5238 1.29425 14.9078 1.34825 16.1088C1.40225 17.3057 1.59425 18.1227 1.87125 18.8417C2.15363 19.5929 2.5974 20.2729 3.17125 20.8337C3.73379 21.4051 4.41288 21.8485 5.16225 22.1338C5.87725 22.4108 6.69425 22.6027 7.89525 22.6567C9.09725 22.7097 9.47625 22.7237 12.5352 22.7237C15.5952 22.7237 15.9752 22.7097 17.1752 22.6567C18.3732 22.6027 19.1903 22.4108 19.9093 22.1338C20.6604 21.8514 21.3404 21.4076 21.9013 20.8337C22.4726 20.2712 22.916 19.5921 23.2013 18.8428C23.4772 18.1278 23.6692 17.3108 23.7232 16.1088C23.7762 14.9078 23.7903 14.5287 23.7903 11.4688C23.7903 8.40875 23.7762 8.02975 23.7232 6.82875C23.6692 5.63175 23.4773 4.81475 23.2003 4.09575C22.9179 3.34464 22.4741 2.66464 21.9002 2.10375C21.3377 1.53243 20.6586 1.08903 19.9093 0.80375C19.1943 0.52675 18.3773 0.33475 17.1763 0.28175C15.9703 0.23175 15.5863 0.21875 12.5312 0.21875Z" fill="#535768"/>
<path d="M12.531 5.69378C10.998 5.69405 9.52794 6.30326 8.44417 7.38741C7.3604 8.47156 6.75169 9.94183 6.75195 11.4748C6.75222 13.0077 7.36144 14.4778 8.44558 15.5616C9.52973 16.6453 11 17.254 12.533 17.2538C13.292 17.2536 14.0436 17.104 14.7448 16.8134C15.446 16.5228 16.0831 16.097 16.6197 15.5602C17.1564 15.0233 17.582 14.3861 17.8724 13.6848C18.1627 12.9835 18.3121 12.2318 18.312 11.4728C18.3118 10.7137 18.1622 9.96216 17.8716 9.26095C17.581 8.55974 17.1551 7.92263 16.6183 7.386C16.0815 6.84937 15.4443 6.42373 14.7429 6.13337C14.0416 5.84302 13.29 5.69365 12.531 5.69378ZM12.531 15.2198C11.5361 15.2198 10.582 14.8246 9.8786 14.1211C9.17515 13.4177 8.77995 12.4636 8.77995 11.4688C8.77995 10.474 9.17515 9.51987 9.8786 8.81642C10.582 8.11298 11.5361 7.71778 12.531 7.71778C13.5258 7.71778 14.4799 8.11298 15.1833 8.81642C15.8868 9.51987 16.282 10.474 16.282 11.4688C16.282 12.4636 15.8868 13.4177 15.1833 14.1211C14.4799 14.8246 13.5258 15.2198 12.531 15.2198ZM18.538 6.81078C18.7181 6.81569 18.8975 6.78444 19.0654 6.71888C19.2333 6.65331 19.3863 6.55477 19.5155 6.42907C19.6447 6.30336 19.7473 6.15304 19.8174 5.98699C19.8876 5.82094 19.9237 5.64253 19.9237 5.46228C19.9237 5.28204 19.8876 5.10362 19.8174 4.93757C19.7473 4.77152 19.6447 4.6212 19.5155 4.4955C19.3863 4.36979 19.2333 4.27125 19.0654 4.20569C18.8975 4.14012 18.7181 4.10887 18.538 4.11378C18.1867 4.12335 17.853 4.26962 17.6079 4.52147C17.3628 4.77332 17.2257 5.11086 17.2257 5.46228C17.2257 5.8137 17.3628 6.15125 17.6079 6.40309C17.853 6.65494 18.1867 6.80121 18.538 6.81078Z" fill="#535768"/>
</svg>
