<svg width="11" height="8" viewBox="0 0 11 8" fill="none" xmlns="http://www.w3.org/2000/svg">
<g clip-path="url(#clip0_145_298)">
<path d="M2.32813 2.32465C2.32813 2.39738 2.35495 2.47039 2.40893 2.52726L5.61722 5.89938C5.64439 5.92799 5.67709 5.95078 5.71335 5.96636C5.7496 5.98194 5.78864 5.98998 5.8281 5.98999C5.90772 5.98999 5.98385 5.95745 6.03897 5.89938L9.24727 2.52726C9.35867 2.41029 9.35429 2.22438 9.23822 2.11265C9.21061 2.08603 9.17801 2.06514 9.14229 2.05118C9.10658 2.03723 9.06845 2.03047 9.03011 2.03132C8.99177 2.03217 8.95398 2.04059 8.91891 2.05612C8.88384 2.07164 8.8522 2.09395 8.82579 2.12176L5.82812 5.27247L2.83068 2.12203C2.71925 2.00503 2.53463 2.00092 2.41825 2.11265C2.38974 2.14011 2.36706 2.17303 2.35158 2.20946C2.33609 2.24589 2.32811 2.28506 2.32813 2.32465Z" fill="#323338" stroke="#323338" stroke-width="0.0273438"/>
</g>
<defs>
<clipPath id="clip0_145_298">
<rect width="10" height="7" fill="white" transform="translate(0.828125 0.5)"/>
</clipPath>
</defs>
</svg>
