<svg width="20" height="21" viewBox="0 0 20 21" fill="none" xmlns="http://www.w3.org/2000/svg">
<g clip-path="url(#clip0_145_197)">
<path d="M10 19.1875C12.3869 19.1875 14.6761 18.2393 16.364 16.5515C18.0518 14.8636 19 12.5744 19 10.1875C19 7.80055 18.0518 5.51137 16.364 3.82354C14.6761 2.13571 12.3869 1.1875 10 1.1875C7.61305 1.1875 5.32387 2.13571 3.63604 3.82354C1.94821 5.51137 1 7.80055 1 10.1875C1 12.5744 1.94821 14.8636 3.63604 16.5515C5.32387 18.2393 7.61305 19.1875 10 19.1875Z" stroke="#323338" stroke-linecap="round" stroke-linejoin="round"/>
<path d="M7.831 18.9252C6.613 17.1382 5.8 13.8952 5.8 10.1882C5.8 6.48217 6.613 3.23717 7.831 1.45117M1 10.1882H19M2.386 14.9882H17.615M2.386 5.38817H17.615M12.169 1.45117C13.386 3.23817 14.2 6.48117 14.2 10.1882C14.2 13.8942 13.387 17.1392 12.169 18.9252" stroke="#323338" stroke-linecap="round" stroke-linejoin="round"/>
</g>
<defs>
<clipPath id="clip0_145_197">
<rect width="20" height="20" fill="white" transform="translate(0 0.1875)"/>
</clipPath>
</defs>
</svg>
