<svg width="25" height="25" viewBox="0 0 25 25" fill="none" xmlns="http://www.w3.org/2000/svg">
<g clip-path="url(#clip0_213_382)">
<g clip-path="url(#clip1_213_382)">
<path d="M11.2655 3.59803C11.9583 3.2196 12.8002 3.2196 13.4931 3.59803L20.8984 7.6368C21.6842 8.0659 21.6842 9.17639 20.8984 9.60549L13.4931 13.6443C12.8002 14.0227 11.9583 14.0227 11.2655 13.6443L3.86011 9.60549C3.07437 9.17639 3.07437 8.0659 3.86011 7.6368L11.2655 3.59803ZM20.8984 16.363L13.4931 20.4018C12.8002 20.7803 11.9583 20.7803 11.2655 20.4018L3.86011 16.363C3.14893 15.9745 3.08126 15.0284 3.65708 14.534C3.71787 14.5858 3.78555 14.6331 3.86011 14.6737L11.2655 18.7124C11.9583 19.0909 12.8002 19.0909 13.4931 18.7124L20.8984 14.6737C20.973 14.6331 21.0407 14.5858 21.1015 14.534C21.6773 15.0284 21.6096 15.9745 20.8984 16.363ZM20.926 12.982L13.6204 17.0174C12.9287 17.3992 12.0868 17.4037 11.3917 17.0287L3.88878 12.9876C3.17187 12.6014 3.1019 11.6508 3.68002 11.1552C3.74196 11.2082 3.81193 11.2566 3.88878 11.2983L11.3917 15.3393C12.0868 15.7143 12.9287 15.7098 13.6204 15.328L20.926 11.2926C20.9983 11.2521 21.0648 11.2059 21.1233 11.1552C21.6991 11.6485 21.6326 12.5913 20.926 12.982Z" fill="white"/>
</g>
</g>
<defs>
<clipPath id="clip0_213_382">
<rect width="19" height="19" fill="white" transform="translate(2.89062 2.5)"/>
</clipPath>
<clipPath id="clip1_213_382">
<rect width="19" height="19" fill="white" transform="translate(2.89062 2.5)"/>
</clipPath>
</defs>
</svg>
