<svg width="25" height="25" viewBox="0 0 25 25" fill="none" xmlns="http://www.w3.org/2000/svg">
<g clip-path="url(#clip0_93_34)">
<g clip-path="url(#clip1_93_34)">
<path d="M11.2663 3.59827C11.9592 3.21985 12.8011 3.21985 13.4939 3.59827L20.8993 7.63704C21.685 8.06614 21.685 9.17664 20.8993 9.60574L13.4939 13.6445C12.8011 14.0229 11.9592 14.0229 11.2663 13.6445L3.86096 9.60574C3.07523 9.17664 3.07523 8.06614 3.86096 7.63704L11.2663 3.59827ZM20.8993 16.3633L13.4939 20.402C12.8011 20.7805 11.9592 20.7805 11.2663 20.402L3.86096 16.3633C3.14979 15.9748 3.08211 15.0287 3.65793 14.5343C3.71873 14.586 3.7864 14.6334 3.86096 14.6739L11.2663 18.7127C11.9592 19.0911 12.8011 19.0911 13.4939 18.7127L20.8993 14.6739C20.9739 14.6334 21.0416 14.586 21.1024 14.5343C21.6782 15.0287 21.6105 15.9748 20.8993 16.3633ZM20.9268 12.9823L13.6212 17.0177C12.9295 17.3995 12.0876 17.4039 11.3925 17.0289L3.88964 12.9879C3.17273 12.6016 3.10276 11.651 3.68087 11.1555C3.74281 11.2084 3.81278 11.2568 3.88964 11.2985L11.3925 15.3395C12.0876 15.7146 12.9295 15.71 13.6212 15.3282L20.9268 11.2929C20.9991 11.2523 21.0656 11.2062 21.1241 11.1555C21.6999 11.6487 21.6334 12.5915 20.9268 12.9823Z" fill="white"/>
</g>
</g>
<defs>
<clipPath id="clip0_93_34">
<rect width="19" height="19" fill="white" transform="translate(2.89062 2.5)"/>
</clipPath>
<clipPath id="clip1_93_34">
<rect width="19" height="19" fill="white" transform="translate(2.89062 2.5)"/>
</clipPath>
</defs>
</svg>
