<svg width="11" height="8" viewBox="0 0 11 8" fill="none" xmlns="http://www.w3.org/2000/svg">
<g clip-path="url(#clip0_145_293)">
<path d="M1.875 2.32465C1.875 2.39738 1.90182 2.47039 1.9558 2.52726L5.1641 5.89938C5.19127 5.92799 5.22397 5.95078 5.26022 5.96636C5.29647 5.98194 5.33552 5.98998 5.37497 5.98999C5.4546 5.98999 5.53072 5.95745 5.58585 5.89938L8.79414 2.52726C8.90554 2.41029 8.90117 2.22438 8.78509 2.11265C8.75749 2.08603 8.72489 2.06514 8.68917 2.05118C8.65345 2.03723 8.61532 2.03047 8.57698 2.03132C8.53865 2.03217 8.50085 2.04059 8.46579 2.05612C8.43072 2.07164 8.39907 2.09395 8.37267 2.12176L5.375 5.27247L2.37755 2.12203C2.26612 2.00503 2.0815 2.00092 1.96513 2.11265C1.93661 2.14011 1.91394 2.17303 1.89845 2.20946C1.88297 2.24589 1.87499 2.28506 1.875 2.32465Z" fill="#323338" stroke="#323338" stroke-width="0.0273438"/>
</g>
<defs>
<clipPath id="clip0_145_293">
<rect width="10" height="7" fill="white" transform="translate(0.375 0.5)"/>
</clipPath>
</defs>
</svg>
