<svg width="22" height="22" viewBox="0 0 22 22" fill="none" xmlns="http://www.w3.org/2000/svg">
<g clip-path="url(#clip0_74_725)">
<path d="M10.999 22C15.82 22 18.499 22 20.249 20.25C22 18.5 22 15.82 22 11C22 6.18 22 3.501 20.249 1.751C18.499 0 15.82 0 10.999 0C6.179 0 3.5 0 1.749 1.751C0 3.5 0 6.181 0 11C0 15.82 0 18.5 1.749 20.25C3.5 21.999 6.179 22 10.999 22Z" fill="black"/>
<path d="M5.41116 9.57478L12.0512 9.58778L12.4272 7.95378L18.0872 7.93478L17.4222 9.56178L12.0562 9.58778L11.6852 11.2218L5.41016 11.2098L5.41116 9.57478ZM5.41116 6.30078L11.4602 6.31378C12.1442 6.31378 12.6462 6.97478 12.4892 7.66278L12.4262 7.94778L5.41016 7.93578L5.41116 6.30078ZM11.6772 11.2218L15.6492 11.2288L15.0662 12.8628L11.3082 12.8558L10.9392 14.4878H10.9302C10.7162 15.3118 11.3192 16.1288 12.1472 16.1288H13.2952L13.9292 14.4878H10.9392L5.41016 14.4758V12.8418L11.3082 12.8538L11.6772 11.2218Z" fill="white"/>
</g>
<defs>
<clipPath id="clip0_74_725">
<rect width="22" height="22" fill="white"/>
</clipPath>
</defs>
</svg>
