<svg width="21" height="21" viewBox="0 0 21 21" fill="none" xmlns="http://www.w3.org/2000/svg">
<g clip-path="url(#clip0_213_388)">
<path d="M11.8281 10.5C11.8281 10.6854 11.7731 10.8667 11.6701 11.0208C11.5671 11.175 11.4207 11.2952 11.2494 11.3661C11.0781 11.4371 10.8896 11.4557 10.7077 11.4195C10.5259 11.3833 10.3588 11.294 10.2277 11.1629C10.0966 11.0318 10.0073 10.8648 9.97114 10.6829C9.93497 10.501 9.95354 10.3125 10.0245 10.1412C10.0954 9.96993 10.2156 9.82351 10.3698 9.7205C10.5239 9.61748 10.7052 9.5625 10.8906 9.5625C11.1392 9.5625 11.3777 9.66127 11.5535 9.83709C11.7293 10.0129 11.8281 10.2514 11.8281 10.5ZM15.8906 9.5625C15.7052 9.5625 15.5239 9.61748 15.3698 9.7205C15.2156 9.82351 15.0954 9.96993 15.0245 10.1412C14.9535 10.3125 14.9349 10.501 14.9711 10.6829C15.0073 10.8648 15.0966 11.0318 15.2277 11.1629C15.3588 11.294 15.5258 11.3833 15.7077 11.4195C15.8896 11.4557 16.0781 11.4371 16.2494 11.3661C16.4207 11.2952 16.5671 11.175 16.6701 11.0208C16.7731 10.8667 16.8281 10.6854 16.8281 10.5C16.8281 10.2514 16.7293 10.0129 16.5535 9.83709C16.3777 9.66127 16.1392 9.5625 15.8906 9.5625ZM5.89063 9.5625C5.70521 9.5625 5.52395 9.61748 5.36978 9.7205C5.21561 9.82351 5.09545 9.96993 5.02449 10.1412C4.95354 10.3125 4.93497 10.501 4.97114 10.6829C5.00732 10.8648 5.09661 11.0318 5.22772 11.1629C5.35883 11.294 5.52588 11.3833 5.70773 11.4195C5.88959 11.4557 6.07809 11.4371 6.2494 11.3661C6.4207 11.2952 6.56712 11.175 6.67013 11.0208C6.77315 10.8667 6.82813 10.6854 6.82813 10.5C6.82813 10.2514 6.72936 10.0129 6.55354 9.83709C6.37773 9.66127 6.13927 9.5625 5.89063 9.5625Z" fill="white"/>
</g>
<defs>
<clipPath id="clip0_213_388">
<rect width="20" height="21" fill="white" transform="translate(0.890625)"/>
</clipPath>
</defs>
</svg>
