<svg width="21" height="20" viewBox="0 0 21 20" fill="none" xmlns="http://www.w3.org/2000/svg">
<g clip-path="url(#clip0_125_259)">
<path d="M13.5387 13.2127C13.5104 13.2343 13.4829 13.2585 13.4562 13.2852C13.4296 13.3118 13.4062 13.3385 13.3837 13.3677C12.3354 14.3785 10.9096 14.9993 9.33789 14.9993C7.72706 14.9993 6.26956 14.3477 5.21289 13.291C4.15622 12.2343 3.50456 10.7768 3.50456 9.16602C3.50456 7.55518 4.15622 6.09768 5.21289 5.04102C6.26956 3.98435 7.72706 3.33268 9.33789 3.33268C10.9487 3.33268 12.4062 3.98435 13.4629 5.04102C14.5196 6.09768 15.1712 7.55518 15.1712 9.16602C15.1712 10.7377 14.5504 12.1635 13.5387 13.2127ZM18.2604 16.9102L15.1979 13.8477C16.2237 12.5643 16.8379 10.9368 16.8379 9.16602C16.8379 7.09518 15.9979 5.21935 14.6412 3.86268C13.2846 2.50602 11.4087 1.66602 9.33789 1.66602C7.26706 1.66602 5.39122 2.50602 4.03456 3.86268C2.67789 5.21935 1.83789 7.09518 1.83789 9.16602C1.83789 11.2368 2.67789 13.1127 4.03456 14.4693C5.39122 15.826 7.26706 16.666 9.33789 16.666C11.1087 16.666 12.7362 16.0518 14.0196 15.026L17.0821 18.0885C17.4079 18.4143 17.9354 18.4143 18.2604 18.0885C18.5854 17.7627 18.5862 17.2352 18.2604 16.9102Z" fill="#3F20BA"/>
</g>
<defs>
<clipPath id="clip0_125_259">
<rect width="20" height="20" fill="white" transform="translate(0.171875)"/>
</clipPath>
</defs>
</svg>
