<svg width="11" height="11" viewBox="0 0 11 11" fill="none" xmlns="http://www.w3.org/2000/svg">
<g clip-path="url(#clip0_145_203)">
<path d="M0.78125 2.79414C0.78125 2.89804 0.81957 3.00234 0.89668 3.08359L5.47996 7.9009C5.51877 7.94177 5.56549 7.97433 5.61728 7.99658C5.66907 8.01884 5.72484 8.03033 5.78121 8.03035C5.89496 8.03035 6.00371 7.98386 6.08246 7.9009L10.6657 3.08359C10.8249 2.91648 10.8186 2.6509 10.6528 2.49129C10.6134 2.45326 10.5668 2.42342 10.5158 2.40348C10.4648 2.38354 10.4103 2.37389 10.3555 2.3751C10.3007 2.37631 10.2468 2.38835 10.1967 2.41052C10.1466 2.4327 10.1014 2.46457 10.0636 2.50429L5.78125 7.00531L1.49918 2.50468C1.34 2.33754 1.07625 2.33168 0.91 2.49129C0.869271 2.53051 0.836876 2.57755 0.814753 2.62959C0.792631 2.68163 0.781236 2.73759 0.78125 2.79414Z" fill="#535768"/>
</g>
<defs>
<clipPath id="clip0_145_203">
<rect width="10" height="10" fill="white" transform="translate(0.78125 0.1875)"/>
</clipPath>
</defs>
</svg>
