<svg width="120" height="41" viewBox="0 0 120 41" fill="none" xmlns="http://www.w3.org/2000/svg">
<g clip-path="url(#clip0_145_270)">
<path d="M110.134 0.1875H9.53405C9.16705 0.1875 8.80405 0.1875 8.43905 0.1895C8.13305 0.1915 7.82905 0.1975 7.52005 0.2025C6.84905 0.2105 6.17905 0.2695 5.51605 0.3775C4.85477 0.489707 4.21422 0.701088 3.61605 1.0045C2.71612 1.46474 1.9372 2.13042 1.34235 2.94764C0.747498 3.76487 0.353431 4.71067 0.192047 5.7085C0.0807748 6.37021 0.0209292 7.03955 0.0130469 7.7105C0.00304688 8.0175 0.00304687 8.3255 -0.00195312 8.6315V31.7475C0.00304687 32.0575 0.00404688 32.3575 0.0130469 32.6685C0.0210469 33.3395 0.0810469 34.0085 0.193047 34.6705C0.303047 35.3335 0.513047 35.9765 0.817047 36.5755C1.12005 37.1735 1.51805 37.7185 1.99605 38.1895C2.46905 38.6665 3.01505 39.0645 3.61405 39.3685C4.21305 39.6725 4.85405 39.8855 5.51505 39.9985C6.17805 40.1085 6.84805 40.1665 7.51905 40.1755C7.82905 40.1825 8.13205 40.1865 8.43805 40.1865C8.80405 40.1885 9.16605 40.1885 9.53305 40.1885H110.133C110.492 40.1885 110.857 40.1885 111.217 40.1865C111.521 40.1865 111.834 40.1825 112.139 40.1765C112.809 40.1665 113.477 40.1085 114.139 39.9985C114.803 39.884 115.446 39.6717 116.047 39.3685C116.646 39.0637 117.192 38.665 117.665 38.1875C118.141 37.7147 118.54 37.1701 118.847 36.5735C119.149 35.9735 119.357 35.3315 119.466 34.6685C119.577 34.0075 119.639 33.3385 119.651 32.6665C119.655 32.3565 119.655 32.0565 119.655 31.7455C119.663 31.3815 119.663 31.0205 119.663 30.6515V9.7235C119.663 9.3575 119.663 8.9935 119.655 8.6315C119.655 8.3255 119.655 8.0175 119.651 7.7115C119.639 7.04018 119.577 6.37067 119.466 5.7085C119.357 5.04657 119.148 4.40497 118.847 3.8055C118.23 2.60258 117.251 1.62338 116.048 1.0055C115.447 0.7028 114.804 0.491475 114.14 0.3785C113.479 0.2685 112.81 0.2095 112.14 0.2025C111.835 0.1975 111.522 0.1915 111.218 0.1895C110.858 0.1875 110.493 0.1875 110.134 0.1875Z" fill="#A6A6A6"/>
<path d="M8.44505 39.3125C8.14005 39.3125 7.84305 39.3085 7.54105 39.3025C6.91452 39.2941 6.28948 39.2392 5.67105 39.1385C5.09489 39.0391 4.53675 38.8544 4.01505 38.5905C3.49793 38.3289 3.02625 37.9859 2.61805 37.5745C2.20413 37.1676 1.85958 36.6957 1.59805 36.1775C1.33311 35.6562 1.14965 35.0974 1.05405 34.5205C0.951341 33.9006 0.895848 33.2738 0.888047 32.6455C0.881047 32.4355 0.873047 31.7325 0.873047 31.7325V8.6325C0.873047 8.6325 0.882047 7.9405 0.888047 7.7375C0.8955 7.11022 0.950659 6.48441 1.05305 5.8655C1.14867 5.28703 1.33212 4.72656 1.59705 4.2035C1.85705 3.6855 2.20005 3.2135 2.61205 2.8055C3.43963 1.97386 4.50889 1.42506 5.66705 1.2375C6.28705 1.1375 6.91505 1.0825 7.54305 1.0745L8.44505 1.0625H111.214L112.127 1.0755C112.75 1.08267 113.371 1.13682 113.985 1.2375C114.566 1.33615 115.129 1.52084 115.656 1.7855C116.694 2.3201 117.539 3.16638 118.071 4.2055C118.332 4.72491 118.512 5.28092 118.606 5.8545C118.71 6.4785 118.768 7.1095 118.78 7.7415C118.783 8.0245 118.783 8.3295 118.783 8.6315C118.791 9.0065 118.791 9.3635 118.791 9.7235V30.6525C118.791 31.0155 118.791 31.3705 118.783 31.7275C118.783 32.0525 118.783 32.3505 118.779 32.6575C118.768 33.2775 118.71 33.8975 118.608 34.5105C118.515 35.0916 118.333 35.655 118.068 36.1805C117.805 36.6931 117.462 37.1608 117.053 37.5665C116.644 37.9801 116.172 38.3252 115.653 38.5885C115.128 38.8547 114.566 39.0401 113.985 39.1385C113.367 39.2395 112.742 39.2945 112.116 39.3015C111.823 39.3085 111.517 39.3125 111.219 39.3125L110.135 39.3145L8.44505 39.3125Z" fill="black"/>
<path d="M24.7682 20.488C24.7789 19.6535 25.0006 18.8353 25.4125 18.1096C25.8244 17.3838 26.4133 16.774 27.1242 16.337C26.6727 15.6919 26.0769 15.161 25.3843 14.7864C24.6917 14.4118 23.9213 14.2038 23.1342 14.179C21.4542 14.003 19.8262 15.184 18.9702 15.184C18.0982 15.184 16.7802 14.196 15.3622 14.226C14.4446 14.2555 13.5503 14.5222 12.7664 15.0001C11.9825 15.478 11.3358 16.1508 10.8892 16.953C8.95524 20.302 10.3972 25.223 12.2502 27.93C13.1772 29.255 14.2602 30.735 15.6782 30.683C17.0652 30.625 17.5832 29.798 19.2582 29.798C20.9162 29.798 21.4022 30.683 22.8482 30.65C24.3372 30.625 25.2742 29.318 26.1682 27.98C26.8347 27.0359 27.3477 25.9923 27.6882 24.888C26.8233 24.5223 26.0851 23.9101 25.5658 23.1276C25.0465 22.3451 24.7691 21.4271 24.7682 20.488ZM22.0362 12.398C22.8477 11.424 23.2477 10.1721 23.1512 8.908C21.9112 9.03818 20.7657 9.6309 19.9432 10.568C19.5413 11.0257 19.2335 11.5581 19.0374 12.1348C18.8412 12.7115 18.7607 13.3212 18.8002 13.929C19.4202 13.9352 20.0335 13.8008 20.594 13.5358C21.1545 13.2708 21.6476 12.8821 22.0362 12.399V12.398ZM42.3012 27.328H37.5692L36.4322 30.684H34.4272L38.9112 18.266H40.9942L45.4772 30.684H43.4382L42.3022 27.328H42.3012ZM38.0582 25.778H41.8102L39.9602 20.332H39.9092L38.0592 25.779L38.0582 25.778ZM55.1592 26.158C55.1592 28.971 53.6532 30.778 51.3802 30.778C50.8048 30.808 50.2325 30.6755 49.7289 30.3955C49.2252 30.1156 48.8106 29.6995 48.5322 29.195H48.4892V33.679H46.6292V21.63H48.4292V23.136H48.4622C48.7533 22.6336 49.1751 22.2196 49.6828 21.9378C50.1904 21.6561 50.7649 21.5172 51.3452 21.536C53.6432 21.536 55.1592 23.352 55.1592 26.158ZM53.2492 26.158C53.2492 24.325 52.3012 23.12 50.8562 23.12C49.4362 23.12 48.4812 24.35 48.4812 26.158C48.4812 27.982 49.4362 29.204 50.8562 29.204C52.3012 29.204 53.2492 28.007 53.2492 26.158ZM65.1232 26.158C65.1232 28.971 63.6182 30.778 61.3452 30.778C60.7698 30.808 60.1975 30.6755 59.6939 30.3955C59.1902 30.1156 58.7756 29.6995 58.4972 29.195H58.4542V33.679H56.5952V21.63H58.3942V23.136H58.4282C58.7193 22.6336 59.1411 22.2196 59.6488 21.9378C60.1564 21.6561 60.7309 21.5172 61.3112 21.536C63.6092 21.536 65.1232 23.352 65.1232 26.158ZM63.2132 26.158C63.2132 24.325 62.2662 23.12 60.8212 23.12C59.4012 23.12 58.4462 24.35 58.4462 26.158C58.4462 27.982 59.4012 29.204 60.8212 29.204C62.2662 29.204 63.2132 28.007 63.2132 26.158ZM71.7092 27.224C71.8472 28.456 73.0442 29.264 74.6792 29.264C76.2452 29.264 77.3722 28.455 77.3722 27.345C77.3722 26.381 76.6922 25.805 75.0822 25.409L73.4732 25.021C71.1932 24.471 70.1342 23.404 70.1342 21.673C70.1342 19.531 72.0012 18.059 74.6532 18.059C77.2772 18.059 79.0762 19.531 79.1362 21.673H77.2602C77.1482 20.434 76.1242 19.686 74.6262 19.686C73.1292 19.686 72.1052 20.443 72.1052 21.544C72.1052 22.422 72.7592 22.939 74.3602 23.334L75.7282 23.67C78.2762 24.273 79.3342 25.296 79.3342 27.113C79.3342 29.436 77.4842 30.891 74.5412 30.891C71.7872 30.891 69.9272 29.471 69.8072 27.224H71.7092ZM83.3452 19.488V21.63H85.0672V23.102H83.3452V28.093C83.3452 28.869 83.6902 29.23 84.4472 29.23C84.6512 29.226 84.8552 29.212 85.0582 29.187V30.65C84.7182 30.714 84.3722 30.742 84.0262 30.736C82.1932 30.736 81.4782 30.047 81.4782 28.292V23.102H80.1622V21.63H81.4782V19.488H83.3452ZM86.0642 26.158C86.0642 23.309 87.7422 21.519 90.3582 21.519C92.9832 21.519 94.6532 23.309 94.6532 26.158C94.6532 29.014 92.9922 30.796 90.3582 30.796C87.7252 30.796 86.0642 29.014 86.0642 26.158ZM92.7592 26.158C92.7592 24.204 91.8642 23.05 90.3582 23.05C88.8522 23.05 87.9582 24.212 87.9582 26.158C87.9582 28.12 88.8522 29.264 90.3582 29.264C91.8642 29.264 92.7592 28.12 92.7592 26.158ZM96.1852 21.63H97.9572V23.171H98.0002C98.1204 22.6899 98.4025 22.2647 98.7991 21.967C99.1957 21.6693 99.6827 21.5171 100.178 21.536C100.392 21.535 100.606 21.558 100.815 21.605V23.343C100.545 23.2604 100.263 23.2225 99.9802 23.231C99.7102 23.2199 99.4409 23.2673 99.191 23.3702C98.941 23.473 98.7163 23.6287 98.5322 23.8266C98.3482 24.0245 98.2092 24.26 98.1248 24.5167C98.0404 24.7735 98.0125 25.0455 98.0432 25.314V30.684H96.1852V21.63ZM109.383 28.025C109.133 29.668 107.533 30.796 105.485 30.796C102.851 30.796 101.216 29.032 101.216 26.201C101.216 23.361 102.86 21.519 105.407 21.519C107.912 21.519 109.487 23.239 109.487 25.985V26.622H103.092V26.734C103.062 27.0672 103.104 27.403 103.214 27.7189C103.324 28.0348 103.501 28.3236 103.731 28.566C103.962 28.8082 104.241 28.9987 104.551 29.1249C104.861 29.2511 105.194 29.3101 105.528 29.298C105.967 29.3398 106.408 29.2384 106.785 29.0089C107.162 28.7795 107.455 28.4344 107.619 28.025H109.383ZM103.101 25.323H107.627C107.645 25.0234 107.599 24.7234 107.495 24.4422C107.39 24.1609 107.228 23.9044 107.019 23.689C106.811 23.4728 106.56 23.3021 106.283 23.1878C106.005 23.0735 105.707 23.0181 105.407 23.025C105.105 23.023 104.804 23.081 104.524 23.1957C104.244 23.3104 103.989 23.4795 103.775 23.6932C103.561 23.9068 103.391 24.1609 103.275 24.4406C103.159 24.7204 103.1 25.0203 103.101 25.323ZM37.8252 8.919C38.2149 8.89104 38.6059 8.94991 38.97 9.09135C39.3342 9.23278 39.6624 9.45327 39.931 9.73691C40.1996 10.0205 40.4019 10.3603 40.5234 10.7315C40.6448 11.1028 40.6823 11.4965 40.6332 11.884C40.6332 13.79 39.6032 14.886 37.8252 14.886H35.6702V8.918H37.8252V8.919ZM36.5972 14.042H37.7222C38.0006 14.0585 38.2791 14.0127 38.5375 13.9081C38.796 13.8034 39.0278 13.6424 39.2162 13.4369C39.4046 13.2313 39.5448 12.9864 39.6266 12.7198C39.7085 12.4533 39.7299 12.1719 39.6892 11.896C39.7268 11.6213 39.7031 11.3416 39.62 11.077C39.5369 10.8125 39.3963 10.5696 39.2084 10.3657C39.0204 10.1618 38.7898 10.0019 38.5328 9.89758C38.2759 9.79322 37.9991 9.74692 37.7222 9.762H36.5972V14.042ZM41.6792 12.632C41.6537 12.3376 41.6896 12.0411 41.7847 11.7612C41.8798 11.4814 42.0321 11.2245 42.2318 11.0066C42.4315 10.7888 42.6744 10.6149 42.9449 10.4959C43.2154 10.3769 43.5077 10.3155 43.8032 10.3155C44.0988 10.3155 44.3911 10.3769 44.6616 10.4959C44.9321 10.6149 45.1749 10.7888 45.3747 11.0066C45.5744 11.2245 45.7267 11.4814 45.8218 11.7612C45.9169 12.0411 45.9528 12.3376 45.9272 12.632C45.9582 12.9294 45.9264 13.23 45.8338 13.5144C45.7412 13.7987 45.5899 14.0604 45.3897 14.2826C45.1895 14.5047 44.9449 14.6823 44.6717 14.8039C44.3985 14.9255 44.1028 14.9883 43.8037 14.9883C43.5047 14.9883 43.209 14.9255 42.9358 14.8039C42.6626 14.6823 42.4179 14.5047 42.2178 14.2826C42.0176 14.0604 41.8663 13.7987 41.7737 13.5144C41.6811 13.23 41.6482 12.9294 41.6792 12.632ZM45.0132 12.632C45.0132 11.656 44.5742 11.086 43.8052 11.086C43.0322 11.086 42.5982 11.656 42.5982 12.632C42.5982 13.616 43.0322 14.182 43.8052 14.182C44.5752 14.182 45.0132 13.612 45.0132 12.632ZM51.5722 14.886H50.6502L49.7202 11.569H49.6502L48.7232 14.886H47.8102L46.5682 10.383H47.4702L48.2762 13.819H48.3432L49.2692 10.383H50.1212L51.0472 13.819H51.1172L51.9202 10.383H52.8092L51.5722 14.886ZM53.8522 10.383H54.7082V11.098H54.7742C54.8869 10.8411 55.077 10.6257 55.3179 10.482C55.5588 10.3382 55.8386 10.2732 56.1182 10.296C56.3374 10.2793 56.5575 10.3123 56.7622 10.3923C56.967 10.4723 57.151 10.5975 57.3008 10.7584C57.4505 10.9193 57.5621 11.1118 57.6273 11.3217C57.6925 11.5317 57.7095 11.7536 57.6772 11.971V14.886H56.7882V12.194C56.7882 11.47 56.4742 11.11 55.8162 11.11C55.6674 11.1026 55.5187 11.1276 55.3804 11.1833C55.2422 11.2389 55.1176 11.3239 55.0154 11.4324C54.9132 11.5409 54.8358 11.6703 54.7884 11.8116C54.7411 11.9529 54.725 12.1028 54.7412 12.251V14.886H53.8522V10.383ZM59.0932 8.625H59.9812V14.885H59.0932V8.625ZM61.2172 12.632C61.1877 12.3354 61.2206 12.0359 61.3139 11.7528C61.4072 11.4697 61.5587 11.2093 61.7588 10.9883C61.9588 10.7673 62.203 10.5907 62.4754 10.4699C62.7479 10.349 63.0427 10.2866 63.3407 10.2866C63.6388 10.2866 63.9336 10.349 64.206 10.4699C64.4785 10.5907 64.7226 10.7673 64.9227 10.9883C65.1227 11.2093 65.2743 11.4697 65.3676 11.7528C65.4608 12.0359 65.4938 12.3354 65.4642 12.632C65.4922 12.9277 65.4582 13.2261 65.3642 13.5079C65.2702 13.7897 65.1184 14.0488 64.9185 14.2685C64.7186 14.4882 64.475 14.6638 64.2033 14.7839C63.9316 14.904 63.6378 14.9661 63.3407 14.9661C63.0437 14.9661 62.7499 14.904 62.4782 14.7839C62.2065 14.6638 61.9629 14.4882 61.763 14.2685C61.5631 14.0488 61.4113 13.7897 61.3173 13.5079C61.2233 13.2261 61.1892 12.9277 61.2172 12.632ZM64.5502 12.632C64.5502 11.656 64.1112 11.086 63.3422 11.086C62.5692 11.086 62.1352 11.656 62.1352 12.632C62.1352 13.616 62.5692 14.182 63.3422 14.182C64.1122 14.182 64.5502 13.612 64.5502 12.632ZM66.3992 13.612C66.3992 12.802 67.0032 12.335 68.0752 12.268L69.2952 12.198V11.809C69.2952 11.333 68.9802 11.065 68.3732 11.065C67.8772 11.065 67.5332 11.247 67.4342 11.565H66.5742C66.6642 10.792 67.3922 10.295 68.4142 10.295C69.5422 10.295 70.1792 10.858 70.1792 11.809V14.886H69.3242V14.253H69.2542C69.1115 14.4801 68.911 14.6652 68.6733 14.7894C68.4356 14.9136 68.1692 14.9725 67.9012 14.96C67.7122 14.9797 67.5211 14.9596 67.3402 14.9009C67.1594 14.8422 66.993 14.7462 66.8515 14.6192C66.7101 14.4922 66.5968 14.3369 66.5191 14.1634C66.4414 13.9899 66.3999 13.8021 66.3992 13.612ZM69.2942 13.228V12.851L68.1942 12.921C67.5742 12.963 67.2942 13.174 67.2942 13.571C67.2942 13.976 67.6452 14.211 68.1282 14.211C68.2698 14.2256 68.4129 14.2115 68.5489 14.1695C68.6849 14.1276 68.8111 14.0587 68.9199 13.967C69.0287 13.8752 69.1179 13.7625 69.1822 13.6356C69.2466 13.5086 69.2846 13.37 69.2942 13.228ZM71.3472 12.632C71.3472 11.209 72.0792 10.308 73.2172 10.308C73.4985 10.2952 73.7776 10.3627 74.022 10.5026C74.2663 10.6425 74.4659 10.849 74.5972 11.098H74.6642V8.625H75.5522V14.885H74.7012V14.175H74.6312C74.4895 14.4225 74.2827 14.6265 74.0332 14.7649C73.7838 14.9032 73.5013 14.9707 73.2162 14.96C72.0712 14.96 71.3472 14.059 71.3472 12.632ZM72.2652 12.632C72.2652 13.587 72.7152 14.162 73.4682 14.162C74.2182 14.162 74.6802 13.579 74.6802 12.636C74.6802 11.698 74.2122 11.106 73.4682 11.106C72.7202 11.106 72.2652 11.686 72.2652 12.632ZM79.2292 12.632C79.2028 12.3372 79.2381 12.0401 79.3328 11.7596C79.4275 11.4792 79.5796 11.2215 79.7794 11.0031C79.9791 10.7846 80.2222 10.6102 80.4931 10.4908C80.764 10.3715 81.0567 10.3098 81.3527 10.3098C81.6488 10.3098 81.9415 10.3715 82.2124 10.4908C82.4833 10.6102 82.7263 10.7846 82.9261 11.0031C83.1259 11.2215 83.2779 11.4792 83.3727 11.7596C83.4674 12.0401 83.5026 12.3372 83.4762 12.632C83.5072 12.9294 83.4754 13.23 83.3828 13.5144C83.2902 13.7987 83.1389 14.0604 82.9387 14.2826C82.7385 14.5047 82.4939 14.6823 82.2207 14.8039C81.9475 14.9255 81.6518 14.9883 81.3527 14.9883C81.0537 14.9883 80.758 14.9255 80.4848 14.8039C80.2116 14.6823 79.9669 14.5047 79.7668 14.2826C79.5666 14.0604 79.4153 13.7987 79.3227 13.5144C79.2301 13.23 79.1982 12.9294 79.2292 12.632ZM82.5622 12.632C82.5622 11.656 82.1232 11.086 81.3542 11.086C80.5812 11.086 80.1472 11.656 80.1472 12.632C80.1472 13.616 80.5822 14.182 81.3542 14.182C82.1242 14.182 82.5622 13.612 82.5622 12.632ZM84.6692 10.383H85.5242V11.098H85.5902C85.7029 10.8411 85.893 10.6257 86.1339 10.482C86.3748 10.3382 86.6546 10.2732 86.9342 10.296C87.1534 10.2793 87.3735 10.3123 87.5782 10.3923C87.783 10.4723 87.967 10.5975 88.1168 10.7584C88.2665 10.9193 88.3782 11.1118 88.4433 11.3217C88.5085 11.5317 88.5256 11.7536 88.4932 11.971V14.886H87.6042V12.194C87.6042 11.47 87.2902 11.11 86.6322 11.11C86.4834 11.1026 86.3347 11.1276 86.1964 11.1833C86.0582 11.2389 85.9336 11.3239 85.8314 11.4324C85.7292 11.5409 85.6518 11.6703 85.6044 11.8116C85.5571 11.9529 85.541 12.1028 85.5572 12.251V14.886H84.6682L84.6692 10.383ZM93.5142 9.262V10.403H94.4902V11.152H93.5142V13.467C93.5142 13.939 93.7092 14.145 94.1512 14.145C94.2642 14.145 94.3772 14.138 94.4902 14.125V14.865C94.3302 14.894 94.1682 14.909 94.0062 14.911C93.0182 14.911 92.6242 14.563 92.6242 13.695V11.152H91.9102V10.403H92.6252V9.262H93.5142ZM95.7042 8.625H96.5842V11.107H96.6542C96.7723 10.8474 96.9676 10.6306 97.2136 10.4861C97.4595 10.3417 97.744 10.2767 98.0282 10.3C98.2461 10.288 98.464 10.3243 98.6662 10.4063C98.8685 10.4883 99.0501 10.6139 99.1982 10.7742C99.3463 10.9345 99.4571 11.1255 99.5228 11.3336C99.5885 11.5417 99.6074 11.7617 99.5782 11.978V14.886H98.6892V12.198C98.6892 11.478 98.3542 11.114 97.7262 11.114C97.5734 11.1011 97.4195 11.1218 97.2755 11.1748C97.1315 11.2277 97.0009 11.3116 96.8928 11.4204C96.7847 11.5293 96.7018 11.6605 96.6498 11.8049C96.5979 11.9492 96.5783 12.1032 96.5922 12.256V14.886H95.7042V8.625ZM104.76 13.67C104.64 14.0821 104.379 14.4387 104.022 14.677C103.665 14.9154 103.236 15.0202 102.809 14.973C102.512 14.9809 102.218 14.9241 101.945 14.8065C101.672 14.689 101.429 14.5135 101.231 14.2922C101.033 14.071 100.885 13.8093 100.799 13.5254C100.712 13.2414 100.688 12.942 100.729 12.648C100.69 12.3532 100.714 12.0533 100.801 11.7687C100.887 11.4842 101.034 11.2215 101.231 10.9985C101.428 10.7755 101.67 10.5973 101.942 10.4762C102.213 10.355 102.508 10.2935 102.805 10.296C104.058 10.296 104.814 11.152 104.814 12.566V12.876H101.634V12.926C101.62 13.0912 101.641 13.2576 101.695 13.4143C101.749 13.5711 101.835 13.7148 101.948 13.8362C102.061 13.9577 102.198 14.0542 102.351 14.1196C102.503 14.185 102.667 14.2178 102.833 14.216C103.046 14.2416 103.261 14.2033 103.452 14.1061C103.643 14.0089 103.801 13.8571 103.905 13.67H104.76ZM101.634 12.219H103.909C103.92 12.0679 103.899 11.9162 103.848 11.7737C103.797 11.6311 103.716 11.5007 103.612 11.3909C103.508 11.2811 103.382 11.1943 103.242 11.1359C103.102 11.0776 102.952 11.049 102.8 11.052C102.646 11.0498 102.494 11.0786 102.351 11.1365C102.209 11.1944 102.079 11.2803 101.971 11.3891C101.862 11.4979 101.776 11.6274 101.718 11.7699C101.661 11.9125 101.632 12.0652 101.634 12.219Z" fill="white"/>
</g>
<defs>
<clipPath id="clip0_145_270">
<rect width="120" height="40" fill="white" transform="translate(0 0.1875)"/>
</clipPath>
</defs>
</svg>
