<svg width="162" height="56" viewBox="0 0 162 56" fill="none" xmlns="http://www.w3.org/2000/svg">
<g clip-path="url(#clip0_145_494)">
<path d="M68.6598 25.4382H61.8017V18.0547H58.2852V34.8856H61.8017V28.5776H68.6598V34.8856H72.1763V18.0547H68.6598V25.4382Z" fill="black"/>
<path d="M76.9707 16.5625C75.6803 16.5625 74.627 17.6162 74.627 18.9069C74.627 20.1976 75.6803 21.2513 76.9707 21.2513C78.261 21.2513 79.3144 20.1976 79.3144 18.9069C79.3144 17.6162 78.261 16.5625 76.9707 16.5625Z" fill="black"/>
<path d="M78.7154 22.5605H75.1992V34.8858H78.7154V22.5605Z" fill="black"/>
<path d="M102.873 22.24C102.669 22.24 100.606 22.0946 99.3853 23.4899V17.4727H95.8691V34.8849H99.3853V28.2572C99.3853 27.5014 99.8503 25.3794 101.943 25.3794C104.21 25.3794 104.21 27.2689 104.21 28.0246V34.8849H107.726V26.9491C107.726 26.7456 107.522 22.24 102.873 22.24Z" fill="black"/>
<path d="M117.314 22.2406C117.111 22.2406 115.047 22.0953 113.827 23.4906V22.7058H110.311V34.8856H113.827V28.2579C113.827 27.5021 114.292 25.3801 116.384 25.3801C118.651 25.3801 118.651 27.2696 118.651 28.0254V34.8856H122.167V26.9498C122.167 26.7463 121.964 22.2406 117.314 22.2406Z" fill="black"/>
<path d="M130.566 22.2402C126.788 22.2402 123.736 25.1471 123.736 28.7226C123.736 32.298 126.788 35.2049 130.566 35.2049C134.344 35.2049 137.395 32.298 137.395 28.7226C137.395 25.1471 134.344 22.2402 130.566 22.2402ZM130.566 32.0655C128.706 32.0655 127.195 30.6411 127.195 28.7226C127.195 26.804 128.706 25.3797 130.566 25.3797C132.425 25.3797 133.937 26.804 133.937 28.7226C133.937 30.6411 132.425 32.0655 130.566 32.0655Z" fill="black"/>
<path d="M145.976 31.9286C143.785 32.1815 143.993 30.2629 143.993 30.2629V25.6991H147.073V22.5597H143.993V17.4727L140.476 18.2866V22.5597H138.064V25.6991H140.476V30.0885C140.476 34.8849 144.167 34.8849 144.807 34.8849C145.969 34.8849 147.354 34.587 147.354 34.587L147.012 31.7353C146.37 31.8879 145.976 31.9286 145.976 31.9286Z" fill="black"/>
<path d="M161.428 28.9842C161.428 24.5367 158.464 22.2402 155.238 22.2402C151.518 22.2402 148.496 25.1471 148.496 28.7226C148.496 32.298 151.664 35.1366 155.383 35.2049C157.986 35.2529 159.767 33.8547 160.363 33.0277C160.378 33.0073 160.389 32.987 160.389 32.987L158.304 31.1527C157.114 32.5437 155.327 32.3562 155.327 32.3562C154.141 32.2646 152.653 31.7457 152.188 30.176H161.429V28.9842H161.428ZM152.245 27.3854C152.495 25.8404 153.93 25.2343 155.18 25.2343C156.43 25.2343 157.711 25.7634 158.115 27.3854H152.245Z" fill="black"/>
<path d="M90.4777 34.876C87.8623 34.7307 86.7001 35.0214 85.3924 34.876C84.6427 34.7932 83.9786 33.6377 85.0059 32.6392C85.6349 32.8528 86.3164 32.9691 87.027 32.9691C90.2368 32.9691 92.8392 30.5942 92.8392 27.6641C92.8392 26.4504 92.3277 25.34 91.5851 24.4607C92.0749 23.5014 93.82 23.6845 93.82 23.6845C93.82 22.9578 93.82 20.7776 93.82 20.7776C93.4015 20.4913 92.2693 20.6439 91.7854 20.7776C91.0503 20.9811 89.939 21.9288 89.8952 23.0596C89.8108 23.0116 89.7253 22.9665 89.6409 22.9244C88.4148 22.3168 87.3015 22.359 87.027 22.359C83.8173 22.359 81.2148 24.7339 81.2148 27.6641C81.2148 29.1509 81.8861 30.4939 82.9642 31.4561C82.5675 31.7206 81.3237 32.6203 81.3237 34.44C81.3237 36.1841 82.8306 37.4516 84.2298 37.6376C86.4094 37.9283 89.2836 37.437 90.1599 37.7015C90.9139 37.9283 91.059 38.9457 91.059 39.091L94.1106 38.3643C94.1106 36.7655 92.948 35.0214 90.4777 34.876ZM87.027 25.1554C88.4116 25.1554 89.5336 26.2775 89.5336 27.6626C89.5336 29.0477 88.4116 30.1698 87.027 30.1698C85.6424 30.1698 84.5204 29.0477 84.5204 27.6626C84.5204 26.2775 85.6436 25.1554 87.027 25.1554Z" fill="black"/>
<path d="M14.3978 41.8751C22.0827 49.5599 34.5423 49.5599 42.2272 41.875C49.9121 34.1902 49.9121 21.7305 42.2272 14.0456C34.5423 6.3607 22.0827 6.3607 14.3978 14.0456C6.71288 21.7305 6.71288 34.1902 14.3978 41.8751Z" fill="#55F5A3"/>
<path d="M30.0771 26.0269C31.0504 27.0002 31.0504 28.5783 30.0771 29.5517C29.1038 30.5251 27.5256 30.5251 26.5523 29.5517C25.5789 28.5783 25.5789 27.0002 26.5523 26.0269C27.5256 25.0535 29.1038 25.0535 30.0771 26.0269Z" fill="black"/>
<path d="M37.8853 30.2964C38.5494 30.3171 39.2043 30.0616 39.7112 29.5546C40.6834 28.5822 40.6834 27.0036 39.7102 26.0301C38.7378 25.0577 37.1591 25.0577 36.1867 26.0301C35.6798 26.537 35.3994 27.2291 35.4439 27.8839C35.477 28.4902 35.3425 29.0984 34.8873 29.5536C34.4321 30.0088 33.8073 30.0895 33.1773 30.1091C32.5779 30.0861 32.0105 30.2917 31.5356 30.6946C31.4802 30.7412 31.4263 30.7905 31.3742 30.8426C31.3723 30.8445 31.3704 30.8464 31.3685 30.8483C31.3669 30.8498 31.3654 30.8514 31.3638 30.853C31.2321 30.9846 31.1182 31.1274 31.0222 31.2783C30.7423 31.7117 30.5994 32.2136 30.6314 32.6964C30.6645 33.3026 30.53 33.9109 30.0748 34.3661C29.6197 34.8213 28.9948 34.902 28.3648 34.9216C27.6914 34.8958 27.0582 35.1585 26.5513 35.6655C25.5789 36.6379 25.5789 38.2165 26.5534 39.189C27.5258 40.1615 29.1034 40.1623 30.0769 39.189C30.5838 38.682 30.8455 37.9962 30.8155 37.3351C30.8104 36.7672 30.92 36.1196 31.3752 35.6644C31.8304 35.2092 32.3993 35.0954 33.0459 35.1089H33.0728C33.5937 35.1251 34.1088 34.9714 34.5514 34.6599C34.6701 34.577 34.7834 34.4825 34.8894 34.3765C34.8912 34.3747 34.8929 34.3729 34.8947 34.3711C34.896 34.3698 34.8974 34.3685 34.8987 34.3671C35.1538 34.112 35.342 33.8154 35.4633 33.499C35.5861 33.184 35.6429 32.8503 35.628 32.5226C35.6229 31.9547 35.7325 31.3071 36.1877 30.8519C36.6429 30.3967 37.2119 30.2829 37.8584 30.2964H37.8853Z" fill="black"/>
<path d="M28.2486 20.6597C28.9127 20.6803 29.5676 20.4248 30.0745 19.9179C31.0469 18.9455 31.0469 17.3668 30.0734 16.3934C29.101 15.421 27.5224 15.421 26.5499 16.3934C26.043 16.9003 25.7627 17.5924 25.8072 18.2472C25.8403 18.8534 25.7058 19.4617 25.2506 19.9169C24.7954 20.3721 24.1706 20.4528 23.5406 20.4724C22.9412 20.4494 22.3738 20.655 21.8988 21.0579C21.8434 21.1044 21.7896 21.1537 21.7374 21.2059C21.7355 21.2078 21.7336 21.2097 21.7317 21.2116C21.7302 21.2131 21.7286 21.2147 21.7271 21.2162C21.5954 21.3479 21.4815 21.4907 21.3855 21.6415C21.1056 22.075 20.9627 22.5769 20.9947 23.0597C21.0278 23.6659 20.8933 24.2742 20.4381 24.7294C19.9829 25.1846 19.3581 25.2652 18.7281 25.2849C18.0546 25.2591 17.4215 25.5218 16.9146 26.0287C15.9422 27.0011 15.9422 28.5798 16.9167 29.5522C17.8891 30.5246 19.4667 30.5257 20.4402 29.5522C20.9471 29.0453 21.2088 28.3594 21.1788 27.6984C21.1736 27.1304 21.2833 26.4828 21.7385 26.0277C22.1936 25.5725 22.7626 25.4587 23.4092 25.4722H23.4361C23.9569 25.4884 24.4721 25.3347 24.9146 25.0231C25.0334 24.9402 25.1467 24.8458 25.2527 24.7397C25.2544 24.738 25.2562 24.7362 25.2579 24.7344C25.2593 24.7331 25.2606 24.7317 25.262 24.7304C25.5171 24.4753 25.7053 24.1786 25.8266 23.8623C25.9494 23.5473 26.0062 23.2135 25.9913 22.8859C25.9861 22.3179 26.0958 21.6704 26.5509 21.2152C27.0061 20.76 27.5751 20.6462 28.2217 20.6597H28.2486Z" fill="black"/>
</g>
<defs>
<clipPath id="clip0_145_494">
<rect width="161.296" height="56" fill="white" transform="translate(0.351562)"/>
</clipPath>
</defs>
</svg>
