<svg width="108" height="37" viewBox="0 0 108 37" fill="none" xmlns="http://www.w3.org/2000/svg">
<rect y="0.5" width="108" height="36" rx="6" fill="#F3F3F3"/>
<rect x="4" y="4.5" width="28" height="28" rx="6" fill="#606266"/>
<g clip-path="url(#clip0_213_125)">
<g clip-path="url(#clip1_213_125)">
<path fill-rule="evenodd" clip-rule="evenodd" d="M19.8169 12.9938C19.735 12.8128 19.5537 12.6975 19.3551 12.7C19.1565 12.7025 18.9781 12.8224 18.9008 13.0054L16.7427 18.114L15.9278 16.447C15.8446 16.2769 15.6724 16.1683 15.4831 16.1666C15.2937 16.165 15.1196 16.2704 15.0334 16.4391L11.4894 23.3724C11.4101 23.5274 11.4172 23.7125 11.5081 23.861C11.5989 24.0095 11.7605 24.1 11.9346 24.1H18.8679H18.8708H24.0687C24.2386 24.1 24.3968 24.0138 24.4889 23.871C24.5809 23.7283 24.5942 23.5486 24.5242 23.3938L19.8169 12.9938ZM19.18 23.1H23.2936L19.3772 14.4474L17.325 19.3053L19.18 23.1ZM16.809 20.5267L18.0669 23.1H15.722L16.809 20.5267ZM16.2267 19.3355L14.6364 23.1H12.7517L15.4686 17.7847L16.2267 19.3355Z" fill="white"/>
</g>
</g>
<g clip-path="url(#clip2_213_125)">
<g clip-path="url(#clip3_213_125)">
<path fill-rule="evenodd" clip-rule="evenodd" d="M53.6875 11.125C53.6875 10.8489 53.9114 10.625 54.1875 10.625H58.5625C58.8386 10.625 59.0625 10.8489 59.0625 11.125V24.25C59.0625 24.5261 58.8386 24.75 58.5625 24.75H56.4464H56.4444H49.8835C49.8603 24.7533 49.8366 24.755 49.8125 24.755C49.7884 24.755 49.7647 24.7533 49.7415 24.75H45.4375C45.1614 24.75 44.9375 24.5261 44.9375 24.25V20.4372V19.4997V14.8122C44.9375 14.536 45.1614 14.3122 45.4375 14.3122H49.3125V13.875C49.3125 13.5989 49.5364 13.375 49.8125 13.375H53.6875V11.125ZM49.3125 15.3122H45.9375V18.9997H49.3125V15.3122ZM49.3125 19.9997H45.9375V20.4372V23.75H49.3125V19.9997ZM50.3125 23.75V19.4997V14.8122V14.375H53.6875V23.75H50.3125ZM54.6875 23.75V13.875V11.625H58.0625V23.75H54.6875Z" fill="#1F2023"/>
</g>
</g>
<g clip-path="url(#clip4_213_125)">
<g clip-path="url(#clip5_213_125)">
<path fill-rule="evenodd" clip-rule="evenodd" d="M93.3536 13.6464C93.5488 13.8417 93.5488 14.1583 93.3536 14.3536L83.3536 24.3536C83.1583 24.5488 82.8417 24.5488 82.6464 24.3536C82.4512 24.1583 82.4512 23.8417 82.6464 23.6464L92.6464 13.6464C92.8417 13.4512 93.1583 13.4512 93.3536 13.6464ZM84.5 14.5C83.9477 14.5 83.5 14.9477 83.5 15.5C83.5 16.0523 83.9477 16.5 84.5 16.5C85.0523 16.5 85.5 16.0523 85.5 15.5C85.5 14.9477 85.0523 14.5 84.5 14.5ZM82.5 15.5C82.5 14.3954 83.3954 13.5 84.5 13.5C85.6046 13.5 86.5 14.3954 86.5 15.5C86.5 16.6046 85.6046 17.5 84.5 17.5C83.3954 17.5 82.5 16.6046 82.5 15.5ZM90.5 22.5C90.5 21.9477 90.9477 21.5 91.5 21.5C92.0523 21.5 92.5 21.9477 92.5 22.5C92.5 23.0523 92.0523 23.5 91.5 23.5C90.9477 23.5 90.5 23.0523 90.5 22.5ZM91.5 20.5C90.3954 20.5 89.5 21.3954 89.5 22.5C89.5 23.6046 90.3954 24.5 91.5 24.5C92.6046 24.5 93.5 23.6046 93.5 22.5C93.5 21.3954 92.6046 20.5 91.5 20.5Z" fill="#1F2023"/>
</g>
</g>
<defs>
<clipPath id="clip0_213_125">
<rect width="14" height="12" fill="white" transform="translate(11 12.5)"/>
</clipPath>
<clipPath id="clip1_213_125">
<rect width="14" height="12" fill="white" transform="translate(11 12.5)"/>
</clipPath>
<clipPath id="clip2_213_125">
<rect width="16" height="15" fill="white" transform="translate(44 10.5)"/>
</clipPath>
<clipPath id="clip3_213_125">
<rect width="16" height="15" fill="white" transform="translate(44 10.5)"/>
</clipPath>
<clipPath id="clip4_213_125">
<rect width="12" height="11" fill="white" transform="translate(82 13.5)"/>
</clipPath>
<clipPath id="clip5_213_125">
<rect width="12" height="11" fill="white" transform="translate(82 13.5)"/>
</clipPath>
</defs>
</svg>
