<svg width="135" height="41" viewBox="0 0 135 41" fill="none" xmlns="http://www.w3.org/2000/svg">
<g clip-path="url(#clip0_145_257)">
<path d="M130 40.1875H5C2.2 40.1875 0 37.9875 0 35.1875V5.1875C0 2.3875 2.2 0.1875 5 0.1875H130C132.8 0.1875 135 2.3875 135 5.1875V35.1875C135 37.8875 132.8 40.1875 130 40.1875Z" fill="black"/>
<path d="M130 0.9875C132.3 0.9875 134.2 2.8875 134.2 5.1875V35.1875C134.2 37.4875 132.3 39.3875 130 39.3875H5C2.7 39.3875 0.8 37.4875 0.8 35.1875V5.1875C0.8 2.8875 2.7 0.9875 5 0.9875H130ZM130 0.1875H5C2.2 0.1875 0 2.3875 0 5.1875V35.1875C0 37.9875 2.2 40.1875 5 40.1875H130C132.8 40.1875 135 37.9875 135 35.1875V5.1875C135 2.4875 132.8 0.1875 130 0.1875Z" fill="#A6A6A6"/>
<path d="M47.4004 10.3879C47.4004 11.1879 47.2004 11.8879 46.7004 12.3879C46.1004 12.9879 45.4004 13.2879 44.5004 13.2879C43.6004 13.2879 42.9004 12.9879 42.3004 12.3879C41.7004 11.7879 41.4004 11.0879 41.4004 10.1879C41.4004 9.28789 41.7004 8.58789 42.3004 7.98789C42.9004 7.38789 43.6004 7.08789 44.5004 7.08789C44.9004 7.08789 45.3004 7.18789 45.7004 7.38789C46.1004 7.58789 46.4004 7.78789 46.6004 8.08789L46.1004 8.58789C45.7004 8.08789 45.2004 7.88789 44.5004 7.88789C43.9004 7.88789 43.3004 8.08789 42.9004 8.58789C42.4004 8.98789 42.2004 9.58789 42.2004 10.2879C42.2004 10.9879 42.4004 11.5879 42.9004 11.9879C43.4004 12.3879 43.9004 12.6879 44.5004 12.6879C45.2004 12.6879 45.7004 12.4879 46.2004 11.9879C46.5004 11.6879 46.7004 11.2879 46.7004 10.7879H44.5004V10.0879H47.4004V10.3879ZM52.0004 7.88789H49.3004V9.78789H51.8004V10.4879H49.3004V12.3879H52.0004V13.1879H48.5004V7.18789H52.0004V7.88789ZM55.3004 13.1879H54.5004V7.88789H52.8004V7.18789H57.0004V7.88789H55.3004V13.1879ZM59.9004 13.1879V7.18789H60.7004V13.1879H59.9004ZM64.1004 13.1879H63.3004V7.88789H61.6004V7.18789H65.7004V7.88789H64.0004V13.1879H64.1004ZM73.6004 12.3879C73.0004 12.9879 72.3004 13.2879 71.4004 13.2879C70.5004 13.2879 69.8004 12.9879 69.2004 12.3879C68.6004 11.7879 68.3004 11.0879 68.3004 10.1879C68.3004 9.28789 68.6004 8.58789 69.2004 7.98789C69.8004 7.38789 70.5004 7.08789 71.4004 7.08789C72.3004 7.08789 73.0004 7.38789 73.6004 7.98789C74.2004 8.58789 74.5004 9.28789 74.5004 10.1879C74.5004 11.0879 74.2004 11.7879 73.6004 12.3879ZM69.8004 11.8879C70.2004 12.2879 70.8004 12.5879 71.4004 12.5879C72.0004 12.5879 72.6004 12.3879 73.0004 11.8879C73.4004 11.4879 73.7004 10.8879 73.7004 10.1879C73.7004 9.48789 73.5004 8.88789 73.0004 8.48789C72.6004 8.08789 72.0004 7.78789 71.4004 7.78789C70.8004 7.78789 70.2004 7.98789 69.8004 8.48789C69.4004 8.88789 69.1004 9.48789 69.1004 10.1879C69.1004 10.8879 69.3004 11.4879 69.8004 11.8879ZM75.6004 13.1879V7.18789H76.5004L79.4004 11.8879V7.18789H80.2004V13.1879H79.4004L76.3004 8.28789V13.1879H75.6004Z" fill="white" stroke="white" stroke-width="0.2" stroke-miterlimit="10"/>
<path d="M68.0996 21.9871C65.6996 21.9871 63.7996 23.7871 63.7996 26.2871C63.7996 28.6871 65.6996 30.5871 68.0996 30.5871C70.4996 30.5871 72.3996 28.7871 72.3996 26.2871C72.3996 23.6871 70.4996 21.9871 68.0996 21.9871ZM68.0996 28.7871C66.7996 28.7871 65.6996 27.6871 65.6996 26.1871C65.6996 24.6871 66.7996 23.5871 68.0996 23.5871C69.3996 23.5871 70.4996 24.5871 70.4996 26.1871C70.4996 27.6871 69.3996 28.7871 68.0996 28.7871ZM58.7996 21.9871C56.3996 21.9871 54.4996 23.7871 54.4996 26.2871C54.4996 28.6871 56.3996 30.5871 58.7996 30.5871C61.1996 30.5871 63.0996 28.7871 63.0996 26.2871C63.0996 23.6871 61.1996 21.9871 58.7996 21.9871ZM58.7996 28.7871C57.4996 28.7871 56.3996 27.6871 56.3996 26.1871C56.3996 24.6871 57.4996 23.5871 58.7996 23.5871C60.0996 23.5871 61.1996 24.5871 61.1996 26.1871C61.1996 27.6871 60.0996 28.7871 58.7996 28.7871ZM47.6996 23.2871V25.0871H51.9996C51.8996 26.0871 51.4996 26.8871 50.9996 27.3871C50.3996 27.9871 49.3996 28.6871 47.6996 28.6871C44.9996 28.6871 42.9996 26.5871 42.9996 23.8871C42.9996 21.1871 45.0996 19.0871 47.6996 19.0871C49.0996 19.0871 50.1996 19.6871 50.9996 20.3871L52.2996 19.0871C51.1996 18.0871 49.7996 17.2871 47.7996 17.2871C44.1996 17.2871 41.0996 20.2871 41.0996 23.8871C41.0996 27.4871 44.1996 30.4871 47.7996 30.4871C49.7996 30.4871 51.1996 29.8871 52.3996 28.5871C53.5996 27.3871 53.9996 25.6871 53.9996 24.3871C53.9996 23.9871 53.9996 23.5871 53.8996 23.2871H47.6996ZM93.0996 24.6871C92.6996 23.6871 91.6996 21.9871 89.4996 21.9871C87.2996 21.9871 85.4996 23.6871 85.4996 26.2871C85.4996 28.6871 87.2996 30.5871 89.6996 30.5871C91.5996 30.5871 92.7996 29.3871 93.1996 28.6871L91.7996 27.6871C91.2996 28.3871 90.6996 28.8871 89.6996 28.8871C88.6996 28.8871 88.0996 28.4871 87.5996 27.5871L93.2996 25.1871L93.0996 24.6871ZM87.2996 26.0871C87.2996 24.4871 88.5996 23.5871 89.4996 23.5871C90.1996 23.5871 90.8996 23.9871 91.0996 24.4871L87.2996 26.0871ZM82.5996 30.1871H84.4996V17.6871H82.5996V30.1871ZM79.5996 22.8871C79.0996 22.3871 78.2996 21.8871 77.2996 21.8871C75.1996 21.8871 73.1996 23.7871 73.1996 26.1871C73.1996 28.5871 75.0996 30.3871 77.2996 30.3871C78.2996 30.3871 79.0996 29.8871 79.4996 29.3871H79.5996V29.9871C79.5996 31.5871 78.6996 32.4871 77.2996 32.4871C76.1996 32.4871 75.3996 31.6871 75.1996 30.9871L73.5996 31.6871C74.0996 32.7871 75.2996 34.1871 77.3996 34.1871C79.5996 34.1871 81.3996 32.8871 81.3996 29.7871V22.1871H79.5996V22.8871ZM77.3996 28.7871C76.0996 28.7871 74.9996 27.6871 74.9996 26.1871C74.9996 24.6871 76.0996 23.5871 77.3996 23.5871C78.6996 23.5871 79.6996 24.6871 79.6996 26.1871C79.6996 27.6871 78.6996 28.7871 77.3996 28.7871ZM101.8 17.6871H97.2996V30.1871H99.1996V25.4871H101.8C103.9 25.4871 105.9 23.9871 105.9 21.5871C105.9 19.1871 103.9 17.6871 101.8 17.6871ZM101.9 23.6871H99.1996V19.3871H101.9C103.3 19.3871 104.1 20.5871 104.1 21.4871C104 22.5871 103.2 23.6871 101.9 23.6871ZM113.4 21.8871C112 21.8871 110.6 22.4871 110.1 23.7871L111.8 24.4871C112.2 23.7871 112.8 23.5871 113.5 23.5871C114.5 23.5871 115.4 24.1871 115.5 25.1871V25.2871C115.2 25.0871 114.4 24.7871 113.6 24.7871C111.8 24.7871 110 25.7871 110 27.5871C110 29.2871 111.5 30.3871 113.1 30.3871C114.4 30.3871 115 29.7871 115.5 29.1871H115.6V30.1871H117.4V25.3871C117.2 23.1871 115.5 21.8871 113.4 21.8871ZM113.2 28.7871C112.6 28.7871 111.7 28.4871 111.7 27.6871C111.7 26.6871 112.8 26.3871 113.7 26.3871C114.5 26.3871 114.9 26.5871 115.4 26.7871C115.2 27.9871 114.2 28.7871 113.2 28.7871ZM123.7 22.1871L121.6 27.5871H121.5L119.3 22.1871H117.3L120.6 29.7871L118.7 33.9871H120.6L125.7 22.1871H123.7ZM106.9 30.1871H108.8V17.6871H106.9V30.1871Z" fill="white"/>
<path d="M10.4004 7.6875C10.1004 7.9875 9.90039 8.4875 9.90039 9.0875V31.1875C9.90039 31.7875 10.1004 32.2875 10.4004 32.5875L10.5004 32.6875L22.9004 20.2875V20.0875L10.4004 7.6875Z" fill="url(#paint0_linear_145_257)"/>
<path d="M27.0004 24.4883L22.9004 20.3883V20.0883L27.0004 15.9883L27.1004 16.0883L32.0004 18.8883C33.4004 19.6883 33.4004 20.9883 32.0004 21.7883L27.0004 24.4883Z" fill="url(#paint1_linear_145_257)"/>
<path d="M27.1004 24.3875L22.9004 20.1875L10.4004 32.6875C10.9004 33.1875 11.6004 33.1875 12.5004 32.7875L27.1004 24.3875Z" fill="url(#paint2_linear_145_257)"/>
<path d="M27.1004 15.9881L12.5004 7.6881C11.6004 7.1881 10.9004 7.2881 10.4004 7.7881L22.9004 20.1881L27.1004 15.9881Z" fill="url(#paint3_linear_145_257)"/>
<path opacity="0.2" d="M27.0004 24.2871L12.5004 32.4871C11.7004 32.9871 11.0004 32.8871 10.5004 32.4871L10.4004 32.5871L10.5004 32.6871C11.0004 33.0871 11.7004 33.1871 12.5004 32.6871L27.0004 24.2871Z" fill="black"/>
<path opacity="0.12" d="M10.4 32.4875C10.1 32.1875 10 31.6875 10 31.0875V31.1875C10 31.7875 10.2 32.2875 10.5 32.5875V32.4875H10.4ZM32 21.4875L27 24.2875L27.1 24.3875L32 21.5875C32.7 21.1875 33 20.6875 33 20.1875C33 20.6875 32.6 21.0875 32 21.4875Z" fill="black"/>
<path opacity="0.25" d="M12.5 7.78787L32 18.8879C32.6 19.2879 33 19.6879 33 20.1879C33 19.6879 32.7 19.1879 32 18.7879L12.5 7.68787C11.1 6.88787 10 7.58787 10 9.18787V9.28787C10 7.68787 11.1 6.98787 12.5 7.78787Z" fill="white"/>
</g>
<defs>
<linearGradient id="paint0_linear_145_257" x1="21.8004" y1="8.8975" x2="5.01739" y2="25.6795" gradientUnits="userSpaceOnUse">
<stop stop-color="#00A0FF"/>
<stop offset="0.007" stop-color="#00A1FF"/>
<stop offset="0.26" stop-color="#00BEFF"/>
<stop offset="0.512" stop-color="#00D2FF"/>
<stop offset="0.76" stop-color="#00DFFF"/>
<stop offset="1" stop-color="#00E3FF"/>
</linearGradient>
<linearGradient id="paint1_linear_145_257" x1="33.8344" y1="20.1893" x2="9.63739" y2="20.1893" gradientUnits="userSpaceOnUse">
<stop stop-color="#FFE000"/>
<stop offset="0.409" stop-color="#FFBD00"/>
<stop offset="0.775" stop-color="#FFA500"/>
<stop offset="1" stop-color="#FF9C00"/>
</linearGradient>
<linearGradient id="paint2_linear_145_257" x1="24.8274" y1="22.4835" x2="2.06939" y2="45.2415" gradientUnits="userSpaceOnUse">
<stop stop-color="#FF3A44"/>
<stop offset="1" stop-color="#C31162"/>
</linearGradient>
<linearGradient id="paint3_linear_145_257" x1="7.29739" y1="0.364101" x2="17.4604" y2="10.5271" gradientUnits="userSpaceOnUse">
<stop stop-color="#32A071"/>
<stop offset="0.069" stop-color="#2DA771"/>
<stop offset="0.476" stop-color="#15CF74"/>
<stop offset="0.801" stop-color="#06E775"/>
<stop offset="1" stop-color="#00F076"/>
</linearGradient>
<clipPath id="clip0_145_257">
<rect width="135" height="40" fill="white" transform="translate(0 0.1875)"/>
</clipPath>
</defs>
</svg>
