<svg width="109" height="32" viewBox="0 0 109 32" fill="none" xmlns="http://www.w3.org/2000/svg">
<g clip-path="url(#clip0_125_247)">
<path d="M22.1615 21.1136H19.2283L15.859 11.5539L13.9671 16.7831H16.879L17.679 19.059H13.2564L12.4911 21.1163H9.55788L14.2377 8.96997H17.479L22.1615 21.1136ZM74.4601 21.1136V18.8377H69.3242V8.9713H66.7203V21.1176L74.4601 21.1136ZM89.469 21.1136V18.8377H84.3358V8.9713H81.7279V21.1176L89.469 21.1136ZM52.298 11.1446C51.5257 11.1446 50.7706 11.3736 50.1284 11.8027C49.4862 12.2318 48.9856 12.8418 48.6901 13.5553C48.3945 14.2689 48.3172 15.0541 48.4678 15.8117C48.6185 16.5692 48.9905 17.2651 49.5366 17.8112C50.0828 18.3574 50.7786 18.7293 51.5362 18.88C52.2937 19.0307 53.0789 18.9533 53.7925 18.6578C54.5061 18.3622 55.116 17.8616 55.5451 17.2194C55.9742 16.5772 56.2033 15.8222 56.2033 15.0498C56.2022 14.0144 55.7904 13.0217 55.0583 12.2896C54.3261 11.5574 53.3334 11.1456 52.298 11.1446ZM52.298 8.76731C53.5406 8.76705 54.7554 9.13528 55.7888 9.82545C56.8221 10.5156 57.6275 11.4967 58.1032 12.6447C58.579 13.7926 58.7036 15.0559 58.4613 16.2746C58.219 17.4934 57.6208 18.613 56.7422 19.4917C55.8637 20.3705 54.7442 20.969 53.5255 21.2115C52.3068 21.454 51.0435 21.3297 49.8955 20.8542C48.7474 20.3787 47.7661 19.5735 47.0758 18.5403C46.3854 17.5071 46.0169 16.2924 46.0169 15.0498C46.0169 13.3836 46.6788 11.7856 47.857 10.6074C49.0352 9.42921 50.6331 8.76731 52.2994 8.76731H52.298ZM101.439 11.1446C100.667 11.1446 99.9119 11.3736 99.2697 11.8027C98.6275 12.2318 98.127 12.8418 97.8314 13.5553C97.5358 14.2689 97.4585 15.0541 97.6092 15.8117C97.7598 16.5692 98.1318 17.2651 98.6779 17.8112C99.2241 18.3574 99.9199 18.7293 100.677 18.88C101.435 19.0307 102.22 18.9533 102.934 18.6578C103.647 18.3622 104.257 17.8616 104.686 17.2194C105.116 16.5772 105.345 15.8222 105.345 15.0498C105.344 14.0144 104.932 13.0217 104.2 12.2896C103.467 11.5574 102.475 11.1456 101.439 11.1446ZM101.439 8.76731C102.682 8.76731 103.897 9.13577 104.93 9.8261C105.963 10.5164 106.768 11.4976 107.244 12.6456C107.719 13.7936 107.844 15.0568 107.601 16.2755C107.359 17.4941 106.76 18.6136 105.882 19.4922C105.003 20.3708 103.884 20.9692 102.665 21.2116C101.446 21.454 100.183 21.3296 99.0351 20.8541C97.8872 20.3786 96.906 19.5733 96.2156 18.5402C95.5253 17.507 95.1569 16.2924 95.1569 15.0498C95.1569 13.3836 95.8187 11.7856 96.9969 10.6074C98.1751 9.42921 99.7731 8.76731 101.439 8.76731ZM39.3077 12.9512C39.3077 15.1098 37.5584 16.9338 35.3985 16.9338H32.3239V21.1136H29.7373V8.9673H35.4038C37.5598 8.9673 39.3091 10.7913 39.3091 12.9499L39.3077 12.9512ZM36.9305 12.9512C36.9305 12.1072 36.2438 11.3512 35.3985 11.3512H32.3239V14.5565H35.4038C36.2451 14.5565 36.9331 13.7952 36.9331 12.9499L36.9305 12.9512ZM27.5027 24.8002C27.3958 24.8001 27.2905 24.8258 27.1956 24.875C27.1007 24.9242 27.019 24.9955 26.9574 25.0829C26.9574 25.0829 26.3747 25.7495 26.0601 26.0628C24.0797 28.0461 21.5668 29.4126 18.8257 29.997C16.0846 30.5813 13.2329 30.3584 10.6159 29.3553C7.99885 28.3521 5.7288 26.6118 4.08061 24.3449C2.43242 22.0781 1.4768 19.382 1.32946 16.5832C1.18213 13.7844 1.84941 11.0029 3.25049 8.5755C4.65157 6.14814 6.72635 4.17905 9.22358 2.90668C11.7208 1.63431 14.5334 1.11325 17.3207 1.40658C20.108 1.69992 22.7505 2.79507 24.9281 4.55942C24.8065 4.91281 24.8097 5.29723 24.9373 5.64852C25.0648 5.99981 25.309 6.29673 25.6291 6.48971C25.9492 6.6827 26.3257 6.76008 26.6959 6.70895C27.0662 6.65782 27.4076 6.48126 27.6634 6.20874C27.9192 5.93623 28.0737 5.58424 28.1013 5.21152C28.1289 4.8388 28.0278 4.4679 27.8149 4.16071C27.602 3.85353 27.2903 3.62864 26.9316 3.52359C26.5729 3.41853 26.1891 3.43966 25.8441 3.58345C23.4275 1.60345 20.4789 0.383182 17.3698 0.0764537C14.2608 -0.230275 11.1305 0.39027 8.3736 1.85987C5.61669 3.32946 3.35655 5.58233 1.87807 8.33448C0.399597 11.0866 -0.231036 14.2149 0.0656681 17.3249C0.362372 20.4349 1.57313 23.3875 3.54533 25.8104C5.51752 28.2334 8.16288 30.0183 11.1479 30.9401C14.133 31.8619 17.3241 31.8793 20.3191 30.9903C23.314 30.1012 25.9788 28.3454 27.9774 25.9442C28.0718 25.851 28.1364 25.7318 28.1627 25.6017C28.189 25.4716 28.1759 25.3367 28.1251 25.2141C28.0742 25.0915 27.988 24.9869 27.8774 24.9137C27.7667 24.8404 27.6367 24.8018 27.504 24.8029L27.5027 24.8002Z" fill="#3F20BA"/>
</g>
<defs>
<clipPath id="clip0_125_247">
<rect width="108.797" height="32" fill="white"/>
</clipPath>
</defs>
</svg>
