<svg width="11" height="8" viewBox="0 0 11 8" fill="none" xmlns="http://www.w3.org/2000/svg">
<g clip-path="url(#clip0_145_303)">
<path d="M1.75 2.32465C1.75 2.39738 1.77682 2.47039 1.8308 2.52726L5.0391 5.89938C5.06627 5.92799 5.09897 5.95078 5.13522 5.96636C5.17147 5.98194 5.21052 5.98998 5.24997 5.98999C5.3296 5.98999 5.40572 5.95745 5.46085 5.89938L8.66914 2.52726C8.78054 2.41029 8.77617 2.22438 8.66009 2.11265C8.63249 2.08603 8.59989 2.06514 8.56417 2.05118C8.52845 2.03723 8.49032 2.03047 8.45198 2.03132C8.41365 2.03217 8.37585 2.04059 8.34079 2.05612C8.30572 2.07164 8.27407 2.09395 8.24767 2.12176L5.25 5.27247L2.25255 2.12203C2.14112 2.00503 1.9565 2.00092 1.84013 2.11265C1.81161 2.14011 1.78894 2.17303 1.77345 2.20946C1.75797 2.24589 1.74999 2.28506 1.75 2.32465Z" fill="#323338" stroke="#323338" stroke-width="0.0273438"/>
</g>
<defs>
<clipPath id="clip0_145_303">
<rect width="10" height="7" fill="white" transform="translate(0.25 0.5)"/>
</clipPath>
</defs>
</svg>
