<svg width="25" height="25" viewBox="0 0 25 25" fill="none" xmlns="http://www.w3.org/2000/svg">
<path d="M21.9923 6.61248C20.6923 6.57248 19.5123 5.94948 18.6233 5.11648C18.1374 4.65372 17.7524 4.09547 17.4925 3.47681C17.2327 2.85815 17.1036 2.19243 17.1133 1.52148H13.4913V15.4745C13.4913 17.7535 12.1253 19.0965 10.4473 19.0965C10.0023 19.1013 9.56155 19.0086 9.15621 18.8247C8.75086 18.6409 8.39073 18.3705 8.10114 18.0325C7.81156 17.6945 7.59956 17.2972 7.48006 16.8685C7.36056 16.4397 7.33648 15.99 7.40949 15.551C7.4825 15.1119 7.65084 14.6942 7.90267 14.3272C8.15449 13.9603 8.48368 13.6529 8.86707 13.4268C9.25046 13.2008 9.67873 13.0615 10.1217 13.0187C10.5648 12.976 11.0118 13.0309 11.4313 13.1795V9.49548C11.1082 9.42448 10.7781 9.3896 10.4473 9.39148C9.12892 9.39089 7.83997 9.78131 6.7435 10.5134C5.64703 11.2454 4.7923 12.2862 4.28741 13.5041C3.78252 14.7219 3.65016 16.0622 3.90707 17.3553C4.16399 18.6484 4.79863 19.8363 5.73073 20.7686C6.66282 21.701 7.8505 22.336 9.14353 22.5933C10.4366 22.8506 11.7769 22.7187 12.9949 22.2141C14.2129 21.7096 15.254 20.8552 15.9863 19.7589C16.7187 18.6627 17.1095 17.3739 17.1093 16.0555V8.54548C18.5133 9.51648 20.1903 9.97548 21.9803 10.0075L21.9923 6.61248Z" fill="#535768"/>
</svg>
