<svg width="25" height="25" viewBox="0 0 25 25" fill="none" xmlns="http://www.w3.org/2000/svg">
<path d="M10.3743 12.2188C9.77225 12.2188 9.28125 12.7098 9.28125 13.3118C9.28125 13.9138 9.77225 14.4047 10.3743 14.4047C10.9763 14.4047 11.4672 13.9138 11.4672 13.3118C11.4672 12.7098 10.9763 12.2188 10.3743 12.2188ZM12.7933 16.9958C13.2113 16.9958 14.6363 16.9468 15.3853 16.1978C15.4953 16.0878 15.4953 15.9158 15.4093 15.7928C15.3552 15.7397 15.2825 15.7099 15.2067 15.7099C15.131 15.7099 15.0583 15.7397 15.0042 15.7928C14.5252 16.2588 13.5302 16.4307 12.8062 16.4307C12.0812 16.4307 11.0742 16.2588 10.6082 15.7928C10.5542 15.7394 10.4812 15.7094 10.4052 15.7094C10.3293 15.7094 10.2563 15.7394 10.2022 15.7928C10.1492 15.8468 10.1194 15.9195 10.1194 15.9952C10.1194 16.071 10.1492 16.1437 10.2022 16.1978C10.9392 16.9348 12.3763 16.9958 12.7933 16.9958ZM14.0953 13.3118C14.0953 13.9138 14.5872 14.4047 15.1882 14.4047C15.7902 14.4047 16.2812 13.9138 16.2812 13.3118C16.2812 12.7098 15.7912 12.2188 15.1882 12.2188C14.5872 12.2188 14.0953 12.7098 14.0953 13.3118Z" fill="#535768"/>
<path fill-rule="evenodd" clip-rule="evenodd" d="M23.2812 12.2188C23.2812 18.0177 18.5802 22.7188 12.7812 22.7188C6.98225 22.7188 2.28125 18.0177 2.28125 12.2188C2.28125 6.41975 6.98225 1.71875 12.7812 1.71875C18.5802 1.71875 23.2812 6.41975 23.2812 12.2188ZM18.2463 10.6838C19.0942 10.6838 19.7812 11.3717 19.7812 12.2188C19.7789 12.5128 19.695 12.8005 19.539 13.0498C19.3829 13.2991 19.1608 13.5002 18.8972 13.6307C18.9222 13.7787 18.9342 13.9257 18.9342 14.0857C18.9342 16.4427 16.1952 18.3468 12.8062 18.3468C9.41625 18.3468 6.67825 16.4427 6.67825 14.0857C6.67825 13.9257 6.69025 13.7657 6.71525 13.6187C6.39615 13.4741 6.13608 13.2248 5.97817 12.912C5.82027 12.5993 5.77402 12.242 5.8471 11.8993C5.92018 11.5567 6.1082 11.2493 6.37996 11.0282C6.65173 10.8071 6.99091 10.6856 7.34125 10.6838C7.74625 10.6838 8.12725 10.8558 8.39725 11.1138C9.45325 10.3398 10.9152 9.86075 12.5472 9.81175L13.3223 6.15175C13.3407 6.0815 13.384 6.02036 13.4443 5.97975C13.5077 5.94298 13.5822 5.93021 13.6543 5.94375L16.1952 6.48375C16.3672 6.11475 16.7353 5.86975 17.1653 5.86975C17.7673 5.86975 18.2582 6.36075 18.2582 6.96275C18.2582 7.56475 17.7683 8.05575 17.1653 8.05575C16.5763 8.05575 16.0972 7.58875 16.0723 7.01175L13.8013 6.53275L13.1012 9.81175C14.6972 9.87275 16.1463 10.3648 17.1903 11.1138C17.4603 10.8438 17.8293 10.6838 18.2463 10.6838Z" fill="#535768"/>
</svg>
