<svg width="797" height="236" viewBox="0 0 797 236" fill="none" xmlns="http://www.w3.org/2000/svg">
<g clip-path="url(#clip0_74_536)">
<path d="M9.29582 43.5986C8.82707 43.5986 8.40922 43.5181 8.04226 43.3572C7.67768 43.1962 7.38767 42.9724 7.17224 42.686C6.95917 42.3972 6.84316 42.0622 6.82422 41.681H7.71911C7.73805 41.9154 7.81854 42.1178 7.96059 42.2883C8.10263 42.4563 8.28848 42.5866 8.51812 42.6789C8.74776 42.7712 9.00226 42.8174 9.28161 42.8174C9.59411 42.8174 9.8711 42.7629 10.1126 42.654C10.354 42.5451 10.5435 42.3936 10.6808 42.1995C10.8181 42.0054 10.8868 41.7804 10.8868 41.5248C10.8868 41.2572 10.8205 41.0217 10.6879 40.8181C10.5553 40.6121 10.3612 40.4511 10.1055 40.3351C9.84979 40.2191 9.53729 40.1611 9.16798 40.1611H8.58559V39.3799H9.16798C9.4568 39.3799 9.71012 39.3278 9.92792 39.2236C10.1481 39.1195 10.3197 38.9727 10.4428 38.7833C10.5683 38.5939 10.6311 38.3714 10.6311 38.1157C10.6311 37.8695 10.5766 37.6552 10.4677 37.4729C10.3588 37.2906 10.2049 37.1486 10.006 37.0468C9.80955 36.945 9.57754 36.8941 9.31002 36.8941C9.05907 36.8941 8.82233 36.9403 8.59979 37.0326C8.37962 37.1225 8.1997 37.2539 8.06002 37.4268C7.92034 37.5972 7.84458 37.8032 7.83275 38.0447H6.98047C6.99468 37.6635 7.1095 37.3297 7.32494 37.0432C7.54037 36.7544 7.82209 36.5295 8.17011 36.3685C8.52048 36.2075 8.90519 36.127 9.32423 36.127C9.77404 36.127 10.1599 36.2182 10.4819 36.4005C10.8039 36.5804 11.0513 36.8183 11.2241 37.1143C11.3969 37.4102 11.4834 37.7298 11.4834 38.0731C11.4834 38.4826 11.3756 38.8318 11.1602 39.1206C10.9471 39.4095 10.6571 39.6095 10.2901 39.7208V39.7776C10.7495 39.8534 11.1081 40.0487 11.3662 40.3635C11.6242 40.676 11.7532 41.0631 11.7532 41.5248C11.7532 41.9201 11.6455 42.2752 11.4301 42.5901C11.217 42.9026 10.9258 43.1488 10.5565 43.3287C10.1871 43.5087 9.76693 43.5986 9.29582 43.5986ZM15.7778 43.5986C15.2428 43.5986 14.787 43.453 14.4106 43.1618C14.0342 42.8683 13.7466 42.4433 13.5477 41.887C13.3488 41.3283 13.2494 40.6536 13.2494 39.8628C13.2494 39.0769 13.3488 38.4057 13.5477 37.8493C13.7489 37.2906 14.0378 36.8645 14.4142 36.5709C14.793 36.275 15.2475 36.127 15.7778 36.127C16.3081 36.127 16.7615 36.275 17.1379 36.5709C17.5167 36.8645 17.8055 37.2906 18.0044 37.8493C18.2056 38.4057 18.3062 39.0769 18.3062 39.8628C18.3062 40.6536 18.2068 41.3283 18.0079 41.887C17.8091 42.4433 17.5214 42.8683 17.145 43.1618C16.7686 43.453 16.3129 43.5986 15.7778 43.5986ZM15.7778 42.8174C16.3081 42.8174 16.7201 42.5617 17.0136 42.0503C17.3072 41.539 17.454 40.8098 17.454 39.8628C17.454 39.2331 17.3865 38.6969 17.2515 38.2542C17.119 37.8115 16.9272 37.4741 16.6763 37.2421C16.4277 37.0101 16.1282 36.8941 15.7778 36.8941C15.2522 36.8941 14.8415 37.1533 14.5456 37.6718C14.2496 38.1879 14.1017 38.9182 14.1017 39.8628C14.1017 40.4926 14.168 41.0276 14.3005 41.468C14.4331 41.9083 14.6237 42.2433 14.8723 42.4729C15.1232 42.7026 15.4251 42.8174 15.7778 42.8174ZM19.9835 36.2265H21.0346L23.5062 42.2634H23.5915L26.063 36.2265H27.1142V43.4992H26.2903V37.9736H26.2193L23.9466 43.4992H23.1511L20.8784 37.9736H20.8074V43.4992H19.9835V36.2265Z" fill="#A4A4A4"/>
<path d="M7.31836 82.4992V81.86L9.71892 79.2322C10.0006 78.9244 10.2326 78.6569 10.4149 78.4296C10.5973 78.2 10.7322 77.9845 10.8198 77.7833C10.9098 77.5797 10.9547 77.3666 10.9547 77.1441C10.9547 76.8884 10.8932 76.667 10.7701 76.4799C10.6494 76.2929 10.4836 76.1486 10.2729 76.0468C10.0622 75.945 9.82546 75.8941 9.56267 75.8941C9.28332 75.8941 9.03947 75.9521 8.83114 76.0681C8.62517 76.1817 8.46537 76.3415 8.35174 76.5475C8.24047 76.7535 8.18483 76.9949 8.18483 77.2719H7.34676C7.34676 76.8458 7.44501 76.4716 7.64151 76.1497C7.838 75.8277 8.10552 75.5769 8.44407 75.3969C8.78497 75.217 9.16731 75.127 9.59108 75.127C10.0172 75.127 10.3948 75.217 10.7239 75.3969C11.053 75.5769 11.311 75.8195 11.4981 76.1249C11.6851 76.4303 11.7786 76.77 11.7786 77.1441C11.7786 77.4116 11.7301 77.6732 11.633 77.9289C11.5383 78.1822 11.3726 78.465 11.1359 78.7775C10.9015 79.0876 10.576 79.4665 10.1593 79.914L8.52574 81.6611V81.718H11.9065V82.4992H7.31836ZM15.8458 82.5986C15.4291 82.5986 15.0539 82.5158 14.7201 82.3501C14.3863 82.1843 14.1188 81.9571 13.9175 81.6682C13.7163 81.3794 13.6062 81.0503 13.5873 80.681H14.4395C14.4727 81.0101 14.6218 81.2822 14.887 81.4977C15.1545 81.7107 15.4741 81.8174 15.8458 81.8174C16.1441 81.8174 16.4092 81.7475 16.6413 81.6079C16.8756 81.4682 17.0591 81.2764 17.1917 81.0326C17.3266 80.7864 17.3941 80.5082 17.3941 80.1981C17.3941 79.8808 17.3243 79.5979 17.1846 79.3493C17.0473 79.0984 16.8579 78.9007 16.6164 78.7563C16.3749 78.6119 16.0991 78.5385 15.789 78.5361C15.5664 78.5338 15.338 78.5681 15.1036 78.6391C14.8692 78.7078 14.6763 78.7964 14.5248 78.9053L13.7009 78.806L14.1413 75.2265H17.9197V76.0077H14.8799L14.6242 78.1525H14.6668C14.816 78.0341 15.003 77.936 15.2279 77.8579C15.4528 77.7797 15.6872 77.7407 15.931 77.7407C16.3761 77.7407 16.7726 77.8471 17.1207 78.0602C17.471 78.2709 17.7457 78.5598 17.9445 78.9268C18.1458 79.2937 18.2464 79.7127 18.2464 80.1839C18.2464 80.6479 18.1422 81.0622 17.9339 81.4268C17.7279 81.789 17.4438 82.0754 17.0816 82.2861C16.7194 82.4945 16.3074 82.5986 15.8458 82.5986ZM19.9849 75.2265H21.036L23.5076 81.2634H23.5929L26.0644 75.2265H27.1156V82.4992H26.2917V76.9736H26.2207L23.948 82.4992H23.1525L20.8798 76.9736H20.8088V82.4992H19.9849V75.2265Z" fill="#A4A4A4"/>
<path d="M7.15234 121.501V120.862L9.55291 118.234C9.83463 117.926 10.0666 117.659 10.2489 117.431C10.4312 117.202 10.5662 116.986 10.6538 116.785C10.7438 116.581 10.7887 116.368 10.7887 116.146C10.7887 115.89 10.7272 115.669 10.6041 115.482C10.4833 115.295 10.3176 115.15 10.1069 115.049C9.89618 114.947 9.65944 114.896 9.39666 114.896C9.1173 114.896 8.87346 114.954 8.66512 115.07C8.45916 115.184 8.29936 115.343 8.18572 115.549C8.07445 115.755 8.01882 115.997 8.01882 116.274H7.18075C7.18075 115.848 7.279 115.474 7.47549 115.152C7.67199 114.83 7.93951 114.579 8.27805 114.399C8.61896 114.219 9.0013 114.129 9.42507 114.129C9.8512 114.129 10.2288 114.219 10.5579 114.399C10.887 114.579 11.145 114.821 11.3321 115.127C11.5191 115.432 11.6126 115.772 11.6126 116.146C11.6126 116.413 11.5641 116.675 11.467 116.931C11.3723 117.184 11.2066 117.467 10.9698 117.779C10.7355 118.09 10.4099 118.468 9.99325 118.916L8.35973 120.663V120.72H11.7404V121.501H7.15234ZM15.7792 121.6C15.2442 121.6 14.7884 121.455 14.412 121.164C14.0356 120.87 13.748 120.445 13.5491 119.889C13.3502 119.33 13.2508 118.655 13.2508 117.865C13.2508 117.079 13.3502 116.407 13.5491 115.851C13.7503 115.292 14.0392 114.866 14.4156 114.573C14.7944 114.277 15.2489 114.129 15.7792 114.129C16.3095 114.129 16.7629 114.277 17.1393 114.573C17.5181 114.866 17.8069 115.292 18.0058 115.851C18.207 116.407 18.3076 117.079 18.3076 117.865C18.3076 118.655 18.2082 119.33 18.0093 119.889C17.8105 120.445 17.5228 120.87 17.1464 121.164C16.77 121.455 16.3143 121.6 15.7792 121.6ZM15.7792 120.819C16.3095 120.819 16.7215 120.563 17.015 120.052C17.3086 119.541 17.4554 118.812 17.4554 117.865C17.4554 117.235 17.3879 116.699 17.2529 116.256C17.1204 115.813 16.9286 115.476 16.6777 115.244C16.4291 115.012 16.1296 114.896 15.7792 114.896C15.2536 114.896 14.8429 115.155 14.547 115.674C14.251 116.19 14.1031 116.92 14.1031 117.865C14.1031 118.494 14.1694 119.029 14.3019 119.47C14.4345 119.91 14.6251 120.245 14.8737 120.475C15.1246 120.704 15.4265 120.819 15.7792 120.819ZM19.9849 114.228H21.036L23.5076 120.265H23.5929L26.0644 114.228H27.1156V121.501H26.2917V115.975H26.2207L23.948 121.501H23.1525L20.8798 115.975H20.8088V121.501H19.9849V114.228Z" fill="#A4A4A4"/>
<path d="M11.2809 153.227V160.5H10.4002V154.151H10.3576L8.58203 155.33V154.435L10.4002 153.227H11.2809ZM15.8452 160.599C15.4285 160.599 15.0533 160.517 14.7195 160.351C14.3857 160.185 14.1182 159.958 13.9169 159.669C13.7157 159.38 13.6056 159.051 13.5867 158.682H14.4389C14.4721 159.011 14.6212 159.283 14.8864 159.499C15.1539 159.712 15.4735 159.818 15.8452 159.818C16.1435 159.818 16.4086 159.748 16.6407 159.609C16.875 159.469 17.0585 159.277 17.1911 159.033C17.326 158.787 17.3935 158.509 17.3935 158.199C17.3935 157.882 17.3237 157.599 17.184 157.35C17.0467 157.099 16.8573 156.902 16.6158 156.757C16.3743 156.613 16.0985 156.539 15.7884 156.537C15.5658 156.535 15.3374 156.569 15.103 156.64C14.8686 156.709 14.6757 156.797 14.5242 156.906L13.7003 156.807L14.1407 153.227H17.9191V154.009H14.8793L14.6236 156.153H14.6662C14.8154 156.035 15.0024 155.937 15.2273 155.859C15.4522 155.781 15.6866 155.741 15.9304 155.741C16.3755 155.741 16.772 155.848 17.1201 156.061C17.4704 156.272 17.7451 156.561 17.9439 156.928C18.1452 157.295 18.2458 157.714 18.2458 158.185C18.2458 158.649 18.1416 159.063 17.9333 159.428C17.7273 159.79 17.4432 160.076 17.081 160.287C16.7188 160.495 16.3068 160.599 15.8452 160.599ZM19.9843 153.227H21.0354L23.507 159.264H23.5923L26.0638 153.227H27.115V160.5H26.2911V154.974H26.2201L23.9474 160.5H23.1519L20.8792 154.974H20.8082V160.5H19.9843V153.227Z" fill="#A4A4A4"/>
<path d="M11.1148 192.228V199.501H10.2342V193.152H10.1916L8.41602 194.331V193.436L10.2342 192.228H11.1148ZM15.7786 199.6C15.2436 199.6 14.7878 199.455 14.4114 199.164C14.035 198.87 13.7474 198.445 13.5485 197.889C13.3496 197.33 13.2502 196.655 13.2502 195.865C13.2502 195.079 13.3496 194.407 13.5485 193.851C13.7497 193.292 14.0386 192.866 14.415 192.573C14.7938 192.277 15.2483 192.129 15.7786 192.129C16.3089 192.129 16.7623 192.277 17.1387 192.573C17.5175 192.866 17.8063 193.292 18.0052 193.851C18.2064 194.407 18.307 195.079 18.307 195.865C18.307 196.655 18.2076 197.33 18.0087 197.889C17.8099 198.445 17.5222 198.87 17.1458 199.164C16.7694 199.455 16.3137 199.6 15.7786 199.6ZM15.7786 198.819C16.3089 198.819 16.7209 198.563 17.0144 198.052C17.308 197.541 17.4548 196.812 17.4548 195.865C17.4548 195.235 17.3873 194.699 17.2523 194.256C17.1198 193.813 16.928 193.476 16.6771 193.244C16.4285 193.012 16.129 192.896 15.7786 192.896C15.253 192.896 14.8423 193.155 14.5464 193.674C14.2504 194.19 14.1025 194.92 14.1025 195.865C14.1025 196.494 14.1688 197.029 14.3013 197.47C14.4339 197.91 14.6245 198.245 14.8731 198.475C15.124 198.704 15.4259 198.819 15.7786 198.819ZM19.9843 192.228H21.0354L23.507 198.265H23.5923L26.0638 192.228H27.115V199.501H26.2911V193.975H26.2201L23.9474 199.501H23.1519L20.8792 193.975H20.8082V199.501H19.9843V192.228Z" fill="#A4A4A4"/>
</g>
<g clip-path="url(#clip1_74_536)">
<g clip-path="url(#clip2_74_536)">
<path d="M37 235V1H796V235H37Z" stroke="#C4C4C4" stroke-miterlimit="10"/>
<path d="M37 1H796V40H37V1Z" stroke="#E6E6E6" stroke-miterlimit="10"/>
<path d="M37 79H796V118H37V79Z" stroke="#E6E6E6" stroke-miterlimit="10"/>
<path d="M37 157H796V196H37V157Z" stroke="#E6E6E6" stroke-miterlimit="10"/>
<path d="M37 40H796V79H37V40Z" stroke="#E6E6E6" stroke-miterlimit="10"/>
<path d="M37 1H196.422V235H37V1Z" stroke="#E6E6E6" stroke-miterlimit="10"/>
<path d="M196.42 1H355.843V235H196.42V1Z" stroke="#E6E6E6" stroke-miterlimit="10"/>
<path d="M515.26 1H674.682V235H515.26V1Z" stroke="#E6E6E6" stroke-miterlimit="10"/>
<path d="M37 118H796V157H37V118Z" stroke="#E6E6E6" stroke-miterlimit="10"/>
<path d="M37 196H796V235H37V196Z" stroke="#E6E6E6" stroke-miterlimit="10"/>
<path d="M36.5 177.386L45.587 199.066L54.674 188.865L64.098 189.417L73.185 195.482L82.273 190.519L91.696 192.725L100.447 198.24L109.871 194.931L118.958 181.421L128.382 190.519L137.469 200.445L146.219 197.688L155.643 142.82L164.73 195.482L173.817 198.24L183.241 197.688L192.328 202.099L201.416 178.664L210.167 196.309L219.59 159.088L228.678 191.622L237.765 194.931L247.188 201.548L256.276 197.136L265.363 188.038L274.45 197.964L283.537 194.655L292.625 199.066L302.049 186.383L311.136 202.099L320.223 65.5098L329.31 196.309L338.734 191.622L347.821 189.968L356.908 190.244L365.995 174.803L375.419 175.63L384.506 191.622L402.681 197.688L411.768 187.487L421.192 198.791L430.279 199.894L439.029 186.383L448.453 182.524L458.214 189.693L466.627 192.725L475.715 199.066L485.138 175.906L494.226 202.927L503.313 173.701L512.737 188.589L521.824 197.136L530.911 191.622L539.998 197.136L557.499 196.034" stroke="#943E5C" stroke-miterlimit="10"/>
<path d="M45.587 199.587L36.5 176.979V204.652H557.5V196.555L539.998 197.658L530.911 192.144L521.824 197.658L512.737 189.11L503.313 174.222L494.226 203.448L485.138 176.428L475.715 199.587L466.627 193.246L458.214 190.214L448.453 183.045L439.029 186.905L430.279 200.415L421.192 199.312L411.768 188.008L402.681 198.209L384.506 192.144L375.419 176.152L365.995 175.324L356.908 190.765L347.821 190.489L338.734 192.144L329.31 196.83L320.083 64.6523L311.136 202.621L302.049 186.905L292.625 199.587L283.538 195.177L274.45 198.485L265.363 188.559L256.276 197.658L247.188 202.069L237.765 195.452L228.678 192.144L219.59 159.609L210.167 196.83L201.416 179.185L192.328 202.621L183.241 198.209L173.817 198.761L164.73 196.003L155.643 143.341L146.219 198.209L137.469 200.966L128.382 191.04L118.958 181.942L109.871 195.452L100.447 198.761L91.696 193.246L82.273 191.04L73.185 196.003L64.098 189.938L54.674 189.387L45.587 199.587Z" fill="url(#paint0_linear_74_536)"/>
<path d="M36.5 205.377L50.733 227.057L64.965 216.856L79.725 217.407L93.957 223.472L108.19 218.509L122.95 220.715L136.655 226.23L151.415 222.921L165.647 209.411L180.407 218.509L194.64 228.435L208.345 225.678L223.104 170.81L237.337 223.472L251.569 226.23L266.329 225.678L280.561 230.09L294.795 206.654L308.5 224.3L323.26 187.078L337.492 219.613L351.725 222.921L366.484 229.538L380.717 225.127L394.949 216.028L409.182 225.954L423.414 222.646L437.647 227.057L452.407 214.374L466.64 230.09L480.872 93.5L495.104 224.3L509.864 219.613L524.097 217.958L538.329 218.234L552.561 202.793L567.321 203.621L581.553 219.613L610.019 225.678L624.252 215.477L639.012 226.781L653.244 227.884L666.949 214.374L681.709 210.514L696.996 217.683L710.174 220.715L724.406 227.057L739.166 203.897L753.399 230.917L767.632 201.691L782.391 216.58L796.624 225.127L810.856 219.613L825.089 225.127L852.499 224.024" stroke="#1E6378" stroke-miterlimit="10"/>
<path d="M50.733 227.435L36.5 204.827V232.5H852.5V224.403L825.089 225.505L810.856 219.991L796.624 225.505L782.391 216.958L767.632 202.07L753.399 231.296L739.166 204.275L724.406 227.435L710.174 221.094L696.996 218.061L681.709 210.893L666.949 214.752L653.244 228.262L639.012 227.16L624.252 215.856L610.019 226.057L581.553 219.991L567.321 203.999L552.561 203.172L538.329 218.613L524.097 218.337L509.864 219.991L495.104 224.678L480.653 92.5L466.64 230.468L452.407 214.752L437.647 227.435L423.415 223.024L409.182 226.333L394.949 216.407L380.717 225.505L366.484 229.917L351.725 223.3L337.492 219.991L323.26 187.457L308.5 224.678L294.795 207.032L280.561 230.468L266.329 226.057L251.569 226.609L237.337 223.851L223.104 171.189L208.345 226.057L194.64 228.814L180.407 218.888L165.647 209.789L151.415 223.3L136.655 226.609L122.95 221.094L108.19 218.888L93.957 223.851L79.725 217.785L64.965 217.234L50.733 227.435Z" fill="url(#paint1_linear_74_536)"/>
<path d="M63.006 204.274L36.5 198.118V219.501H796.346V155.993L784.074 196.497L757.568 208.487L744.315 203.302L730.571 185.156H717.318L704.065 210.107L690.811 154.697L677.067 193.581L664.305 173.167L651.052 211.727L637.799 205.57L624.055 206.543L610.802 213.995L597.549 152.429L584.296 210.107L570.552 188.073L557.299 191.961L543.555 205.895L530.792 200.386L517.048 205.895L503.795 187.424L490.051 191.313L477.289 201.034L463.545 20.0938L450.783 172.195L437.53 203.95L423.786 177.055L410.042 192.933L396.298 202.006L384.026 198.766L369.791 210.431L357.029 181.916L343.776 170.899L329.541 197.794L316.288 203.95L304.017 213.347L290.273 189.045L276.038 192.933L263.766 189.045L250.022 161.502L236.769 183.536L223.516 190.017L209.772 170.501L196.519 213.347L183.757 207.839L170.504 196.822L159.214 202.654L143.507 208.487L130.254 172.519L117.491 198.118L103.257 206.219H90.494L76.75 191.961L63.006 204.274Z" fill="url(#paint2_linear_74_536)"/>
<path d="M63.006 204.866L36.5 198.71V220.093H796.346V156.585L784.074 197.089L757.568 209.079L744.315 203.894L730.571 185.748H717.318L704.065 210.699L690.811 155.289L677.067 194.173L664.305 173.759L651.052 212.319L637.799 206.162L624.055 207.135L610.802 214.587L597.549 153.021L584.296 210.699L570.552 188.665L557.299 192.553L543.555 206.487L530.792 200.978L517.048 206.487L503.795 188.016L490.051 191.905L477.289 201.626L463.545 20.6855L450.783 172.787L437.53 204.542L423.786 177.647L410.042 193.525L396.298 202.598L384.026 199.358L369.791 211.023L357.029 182.508L343.776 171.491L329.541 198.386L316.288 204.542L304.017 213.939L290.273 189.637L276.038 193.525L263.766 189.637L250.022 162.094L236.769 184.128L223.516 190.609L209.772 171.093L196.519 213.939L183.757 208.431L170.504 197.414L159.214 203.246L143.507 209.079L130.254 173.111L117.491 198.71L103.257 206.811H90.494L76.75 192.553L63.006 204.866Z" fill="url(#paint3_linear_74_536)"/>
<path d="M36.5 198.118L63.006 204.274L76.75 191.961L90.494 206.219H103.257L117.491 198.118L130.254 172.519L143.507 208.487L159.214 202.654L170.504 196.822L183.757 207.839L196.519 213.347L209.772 170.501L223.516 190.017L236.769 183.536L250.022 161.502L263.766 189.045L276.038 192.933L290.273 189.045L304.017 213.347L316.288 203.95L329.541 197.794L343.776 170.899L357.029 181.916L369.791 210.431L384.026 198.766L396.298 202.006L410.042 192.933L423.786 177.055L437.53 203.95L450.783 172.195L463.545 14.0938L477.289 201.034L490.051 191.313L503.795 187.424L517.048 205.895L530.792 200.386L543.555 205.895L557.299 191.961L570.552 188.073L584.296 210.107L597.549 152.429L610.802 213.995L624.055 206.543L637.799 205.57L651.052 211.727L664.305 173.167L677.067 193.581L690.811 154.697L704.065 210.107L717.318 185.156H730.571L744.315 203.302L757.568 208.487L784.074 196.497L796.345 155.993" stroke="#EEBC4B" stroke-miterlimit="10"/>
<path d="M36.5 192.22L49.753 218.592L63.006 206.693L76.75 207.336L90.003 214.411L103.257 208.622L117 211.195L129.763 217.628L143.507 213.768L156.76 198.009L170.504 208.622L183.757 220.2L196.519 216.984L210.263 152.983L223.516 214.411L236.769 217.628L250.513 216.984L263.766 222.13L277.02 194.793L289.782 215.376L303.526 171.959L316.779 209.909L330.032 213.768L343.776 221.487L357.029 216.341L370.282 205.728L383.535 217.306L396.788 213.447L410.042 218.592L423.786 203.798L437.039 222.13L450.292 62.8027L463.545 215.376L477.289 209.909L490.542 207.979L503.795 208.301L517.048 190.29L530.792 191.255L544.045 209.909L570.552 216.984L583.805 205.085L597.549 218.271L610.802 219.557L623.564 203.798L637.308 199.296L651.543 207.658L663.814 211.195L677.067 218.592L690.811 191.577L704.065 223.095L717.318 189.004L731.062 206.371L744.315 216.341L757.568 209.909L770.821 216.341L796.345 215.055" stroke="#EB5DB1" stroke-miterlimit="10"/>
<path d="M49.753 218.592L36.5 192.22V224.5H796.346V215.055L770.821 216.341L757.568 209.909L744.315 216.341L731.062 206.371L717.318 189.004L704.065 223.095L690.811 191.577L677.067 218.592L663.814 211.195L651.543 207.658L637.308 199.296L623.564 203.798L610.802 219.557L597.549 218.271L583.805 205.085L570.552 216.984L544.045 209.909L530.792 191.255L517.048 190.29L503.795 208.301L490.542 207.979L477.289 209.909L463.545 215.376L450.088 61.1953L437.039 222.13L423.786 203.798L410.042 218.592L396.789 213.447L383.535 217.306L370.282 205.728L357.029 216.341L343.776 221.487L330.032 213.768L316.779 209.909L303.526 171.959L289.782 215.376L277.02 194.793L263.766 222.13L250.513 216.984L236.769 217.628L223.516 214.411L210.263 152.983L196.519 216.984L183.757 220.2L170.504 208.622L156.76 198.009L143.507 213.768L129.763 217.628L117 211.195L103.257 208.622L90.003 214.411L76.75 207.336L63.006 206.693L49.753 218.592Z" fill="url(#paint4_linear_74_536)"/>
</g>
</g>
<defs>
<linearGradient id="paint0_linear_74_536" x1="-26.652" y1="0.500344" x2="-26.652" y2="521.5" gradientUnits="userSpaceOnUse">
<stop/>
<stop offset="1" stop-color="#943E5C" stop-opacity="0"/>
</linearGradient>
<linearGradient id="paint1_linear_74_536" x1="-54.5" y1="0.500002" x2="-54.5" y2="816.5" gradientUnits="userSpaceOnUse">
<stop stop-color="#1E6378"/>
<stop offset="1" stop-color="#1E6378" stop-opacity="0"/>
</linearGradient>
<linearGradient id="paint2_linear_74_536" x1="17.907" y1="0.50075" x2="17.907" y2="760.347" gradientUnits="userSpaceOnUse">
<stop stop-color="#EEBC4B" stop-opacity="0.1936"/>
<stop offset="1" stop-color="#EEBC4B" stop-opacity="0.01"/>
</linearGradient>
<linearGradient id="paint3_linear_74_536" x1="17.314" y1="0.499548" x2="17.314" y2="760.346" gradientUnits="userSpaceOnUse">
<stop stop-color="#EEBC4B" stop-opacity="0.1936"/>
<stop offset="1" stop-color="#EEBC4B" stop-opacity="0.01"/>
</linearGradient>
<linearGradient id="paint4_linear_74_536" x1="-23.195" y1="0.500319" x2="-23.195" y2="760.346" gradientUnits="userSpaceOnUse">
<stop stop-color="#EB5DB1" stop-opacity="0.1521"/>
<stop offset="1" stop-color="#EB5DB1" stop-opacity="0"/>
</linearGradient>
<clipPath id="clip0_74_536">
<rect width="28" height="235" fill="white" transform="translate(0.5 0.5)"/>
</clipPath>
<clipPath id="clip1_74_536">
<rect width="760" height="235" fill="white" transform="translate(36.5 0.5)"/>
</clipPath>
<clipPath id="clip2_74_536">
<rect width="760" height="235" fill="white" transform="translate(36.5 0.5)"/>
</clipPath>
</defs>
</svg>
