<svg width="89" height="23" viewBox="0 0 89 23" fill="none" xmlns="http://www.w3.org/2000/svg">
<path d="M12.294 18.177H15.065L15.333 16.52H15.837C16.24 17.738 17.331 18.346 18.457 18.346C20.79 18.346 22.218 16.825 22.218 13.58C22.218 10.723 21.042 8.814 18.523 8.814C17.315 8.814 16.24 9.54 15.837 10.621H15.333L15.501 8.086V5.5H12.294V18.177ZM15.501 13.867V13.309C15.501 12.125 16.156 11.399 17.298 11.399C18.289 11.399 18.96 11.839 18.96 12.971V14.205C18.96 15.135 18.507 15.76 17.314 15.76C16.123 15.76 15.501 15.033 15.501 13.867ZM23.057 13.596C23.057 16.453 24.921 18.346 27.758 18.346C30.11 18.346 31.838 17.095 32.074 15.169H29.018C28.934 15.692 28.397 15.996 27.658 15.996C26.902 15.996 26.28 15.524 26.28 14.813V14.34H31.973C32.074 13.986 32.107 13.495 32.107 13.022C32.107 10.284 30.143 8.813 27.658 8.813C25.072 8.813 23.057 10.537 23.057 13.596ZM26.28 12.413V12.228C26.28 11.619 26.851 11.179 27.624 11.179C28.397 11.179 28.901 11.619 28.901 12.228V12.413H26.28ZM39.584 8.931C38.56 8.931 37.77 9.523 37.518 10.993H37.014L36.628 8.982H32.413V11.568H33.808V18.177H37.015V14.425C37.015 12.498 38.207 11.957 39.566 11.957C39.752 11.957 39.937 11.974 40.138 11.991V8.982C39.956 8.945 39.77 8.928 39.584 8.931ZM40.99 8.982V21H44.197V19.073L44.029 16.537H44.533C44.936 17.619 46.011 18.346 47.22 18.346C49.738 18.346 50.914 16.436 50.914 13.58C50.914 10.335 49.486 8.814 47.152 8.814C46.028 8.814 44.936 9.422 44.533 10.638H44.029L43.76 8.982H40.99ZM44.197 13.292C44.197 12.126 44.819 11.4 46.011 11.4C47.203 11.4 47.656 12.025 47.656 12.954V14.188C47.656 15.321 46.985 15.76 45.994 15.76C44.852 15.76 44.197 15.033 44.197 13.85V13.292ZM54.897 15.676V5.5H51.706V15.727C51.706 17.197 52.295 18.178 54.141 18.178H56.979V15.677H54.897V15.676ZM57.569 15.59C57.569 17.281 58.794 18.346 60.675 18.346C62.236 18.346 63.328 17.619 63.681 16.537H64.133V18.177H67.493V15.81H66.333V12.144C66.333 10.15 65.192 8.814 62.27 8.814C59.583 8.814 58.022 9.98 58.122 12.245H61.061C61.01 11.484 61.464 11.231 62.119 11.231C62.74 11.231 63.142 11.484 63.142 12.127V12.769L60.591 12.938C58.794 13.057 57.568 13.901 57.568 15.592L57.569 15.59ZM60.792 15.152C60.792 14.797 61.045 14.459 61.616 14.425L63.143 14.323V15.388C62.891 15.777 62.387 16.03 61.766 16.03C61.094 16.03 60.793 15.743 60.793 15.354L60.792 15.152ZM68.465 18.177H71.673V13.258C71.673 12.177 72.21 11.416 73.284 11.416C74.191 11.416 74.695 11.94 74.695 13.073V18.177H77.918V11.94C77.918 10.064 76.895 8.813 75.064 8.813C73.654 8.813 72.646 9.472 72.176 10.621H71.673L71.286 8.982H68.465V18.177ZM78.948 13.596C78.948 16.453 80.813 18.346 83.651 18.346C86.001 18.346 87.731 17.095 87.966 15.169H84.91C84.826 15.692 84.289 15.996 83.55 15.996C82.794 15.996 82.173 15.524 82.173 14.813V14.34H87.866C87.966 13.986 88 13.495 88 13.022C88 10.284 86.035 8.813 83.55 8.813C80.964 8.813 78.948 10.537 78.948 13.596ZM82.173 12.413V12.228C82.173 11.619 82.744 11.179 83.516 11.179C84.289 11.179 84.793 11.619 84.793 12.228V12.413H82.173ZM4.887 8.983H11.216V18.177H7.994V11.567H4.887V18.176H1.664V11.567H0V8.983H1.664V8.191C1.664 7.977 1.667 7.82 1.672 7.721C1.678 7.617 1.695 7.488 1.722 7.333C1.754 7.179 1.804 7.014 1.869 6.838C2.192 5.945 3.015 5.501 4.337 5.501H6.952V8.001H4.887V8.983ZM8.01 8.001V5.5H11.216V8.001H8.01Z" fill="black"/>
</svg>
