<svg width="13" height="11" viewBox="0 0 13 11" fill="none" xmlns="http://www.w3.org/2000/svg">
<g clip-path="url(#clip0_145_314)">
<path fill-rule="evenodd" clip-rule="evenodd" d="M6.90504 1.65514C6.83814 1.59661 6.7602 1.55205 6.67582 1.52409C6.59144 1.49612 6.50232 1.48531 6.4137 1.4923C6.32508 1.49928 6.23875 1.52392 6.15979 1.56476C6.08084 1.6056 6.01085 1.66182 5.95394 1.73011C5.89703 1.7984 5.85435 1.87738 5.82842 1.96241C5.80248 2.04744 5.79382 2.1368 5.80293 2.22522C5.81204 2.31365 5.83874 2.39936 5.88146 2.47731C5.92419 2.55527 5.98207 2.62389 6.05171 2.67914L9.00504 5.14048H1.40104C1.22423 5.14048 1.05466 5.21072 0.929637 5.33574C0.804613 5.46076 0.734375 5.63033 0.734375 5.80714C0.734375 5.98396 0.804613 6.15352 0.929637 6.27855C1.05466 6.40357 1.22423 6.47381 1.40104 6.47381H8.88371L6.05171 8.83381C5.91574 8.94697 5.83029 9.10951 5.81417 9.28567C5.79804 9.46183 5.85255 9.63718 5.96571 9.77314C6.07887 9.90911 6.2414 9.99456 6.41756 10.0107C6.59372 10.0268 6.76907 9.9723 6.90504 9.85914L11.2117 6.26848C11.2867 6.20591 11.3471 6.12762 11.3885 6.03914C11.4299 5.95067 11.4514 5.85417 11.4514 5.75648C11.4514 5.65879 11.4299 5.56229 11.3885 5.47381C11.3471 5.38534 11.2867 5.30704 11.2117 5.24448L6.90504 1.65514Z" fill="white"/>
</g>
<defs>
<clipPath id="clip0_145_314">
<rect width="12" height="10" fill="white" transform="translate(0.734375 0.5)"/>
</clipPath>
</defs>
</svg>
