<svg width="25" height="25" viewBox="0 0 25 25" fill="none" xmlns="http://www.w3.org/2000/svg">
<path d="M4.33594 9.03125C3.54029 9.03125 2.77723 9.34732 2.21462 9.90993C1.65201 10.4725 1.33594 11.2356 1.33594 12.0312V15.0312C1.33594 15.8269 1.65201 16.59 2.21462 17.1526C2.77723 17.7152 3.54029 18.0312 4.33594 18.0312H5.08594C5.28485 18.0312 5.47562 17.9522 5.61627 17.8116C5.75692 17.6709 5.83594 17.4802 5.83594 17.2812V9.78125C5.83594 9.58234 5.75692 9.39157 5.61627 9.25092C5.47562 9.11027 5.28485 9.03125 5.08594 9.03125H4.33594ZM4.33594 9.03125C4.33594 6.84321 5.20513 4.74479 6.75231 3.19762C8.29948 1.65044 10.3979 0.78125 12.5859 0.78125C14.774 0.78125 16.8724 1.65044 18.4196 3.19762C19.9667 4.74479 20.8359 6.84321 20.8359 9.03125M20.8359 18.0312H20.0859C19.887 18.0312 19.6963 17.9522 19.5556 17.8116C19.415 17.6709 19.3359 17.4802 19.3359 17.2812V9.78125C19.3359 9.58234 19.415 9.39157 19.5556 9.25092C19.6963 9.11027 19.887 9.03125 20.0859 9.03125H20.8359M20.8359 18.0312C21.6316 18.0312 22.3946 17.7152 22.9573 17.1526C23.5199 16.59 23.8359 15.8269 23.8359 15.0312V12.0312C23.8359 11.2356 23.5199 10.4725 22.9573 9.90993C22.3946 9.34732 21.6316 9.03125 20.8359 9.03125M20.8359 18.0312V18.7812C20.8359 19.5769 20.5199 20.34 19.9573 20.9026C19.3946 21.4652 18.6316 21.7812 17.8359 21.7812H15.5859M15.5859 21.7812C15.5859 21.3834 15.4279 21.0019 15.1466 20.7206C14.8653 20.4393 14.4838 20.2812 14.0859 20.2812H12.5859C12.1881 20.2812 11.8066 20.4393 11.5253 20.7206C11.244 21.0019 11.0859 21.3834 11.0859 21.7812C11.0859 22.1791 11.244 22.5606 11.5253 22.8419C11.8066 23.1232 12.1881 23.2812 12.5859 23.2812H14.0859C14.4838 23.2812 14.8653 23.1232 15.1466 22.8419C15.4279 22.5606 15.5859 22.1791 15.5859 21.7812Z" stroke="#3F20BA" stroke-width="1.5" stroke-linecap="round" stroke-linejoin="round"/>
</svg>
