<svg width="25" height="25" viewBox="0 0 25 25" fill="none" xmlns="http://www.w3.org/2000/svg">
<mask id="mask0_145_224" style="mask-type:luminance" maskUnits="userSpaceOnUse" x="0" y="0" width="25" height="25">
<path d="M0.78125 0.21875H24.7812V24.2188H0.78125V0.21875Z" fill="white"/>
</mask>
<g mask="url(#mask0_145_224)">
<path d="M24.2873 6.74814C24.1498 6.2416 23.8822 5.77985 23.511 5.40881C23.1397 5.03776 22.6779 4.77035 22.1712 4.63314C20.2932 4.11914 12.7812 4.11914 12.7812 4.11914C12.7812 4.11914 5.26925 4.11914 3.39125 4.61314C2.88505 4.75765 2.42454 5.02995 2.05397 5.40384C1.6834 5.77774 1.41523 6.24067 1.27525 6.74814C0.78125 8.62614 0.78125 12.5211 0.78125 12.5211C0.78125 12.5211 0.78125 16.4351 1.27525 18.2931C1.41254 18.7999 1.68011 19.2618 2.05134 19.6331C2.42257 20.0043 2.88452 20.2719 3.39125 20.4091C5.28825 20.9231 12.7812 20.9231 12.7812 20.9231C12.7812 20.9231 20.2932 20.9231 22.1712 20.4291C22.6779 20.2919 23.1397 20.0245 23.511 19.6535C23.8822 19.2824 24.1498 18.8207 24.2873 18.3141C24.7812 16.4351 24.7812 12.5391 24.7812 12.5391C24.7812 12.5391 24.8013 8.62614 24.2873 6.74814ZM10.3892 16.1181V8.92314L16.6362 12.5221L10.3892 16.1181Z" fill="#535768"/>
</g>
</svg>
