<svg width="11" height="8" viewBox="0 0 11 8" fill="none" xmlns="http://www.w3.org/2000/svg">
<g clip-path="url(#clip0_145_288)">
<path d="M1.98438 2.32465C1.98438 2.39738 2.0112 2.47039 2.06518 2.52726L5.27347 5.89938C5.30064 5.92799 5.33334 5.95078 5.3696 5.96636C5.40585 5.98194 5.44489 5.98998 5.48435 5.98999C5.56397 5.98999 5.6401 5.95745 5.69522 5.89938L8.90352 2.52726C9.01492 2.41029 9.01054 2.22438 8.89447 2.11265C8.86686 2.08603 8.83426 2.06514 8.79854 2.05118C8.76283 2.03723 8.7247 2.03047 8.68636 2.03132C8.64802 2.03217 8.61023 2.04059 8.57516 2.05612C8.54009 2.07164 8.50845 2.09395 8.48204 2.12176L5.48438 5.27247L2.48693 2.12203C2.3755 2.00503 2.19088 2.00092 2.0745 2.11265C2.04599 2.14011 2.02331 2.17303 2.00783 2.20946C1.99234 2.24589 1.98436 2.28506 1.98438 2.32465Z" fill="#323338" stroke="#323338" stroke-width="0.0273438"/>
</g>
<defs>
<clipPath id="clip0_145_288">
<rect width="10" height="7" fill="white" transform="translate(0.484375 0.5)"/>
</clipPath>
</defs>
</svg>
