<svg width="796" height="235" viewBox="0 0 796 235" fill="none" xmlns="http://www.w3.org/2000/svg">
<g clip-path="url(#clip0_213_152)">
<path d="M8.79656 43.0994C8.32781 43.0994 7.90996 43.0189 7.543 42.858C7.17842 42.697 6.88841 42.4732 6.67298 42.1868C6.45991 41.898 6.3439 41.563 6.32496 41.1818H7.21985C7.23879 41.4162 7.31928 41.6186 7.46133 41.7891C7.60337 41.9571 7.78922 42.0874 8.01886 42.1797C8.2485 42.272 8.503 42.3182 8.78235 42.3182C9.09485 42.3182 9.37184 42.2637 9.61332 42.1548C9.85479 42.0459 10.0442 41.8944 10.1815 41.7003C10.3188 41.5062 10.3875 41.2812 10.3875 41.0256C10.3875 40.758 10.3212 40.5225 10.1886 40.3189C10.056 40.1129 9.8619 39.9519 9.60622 39.8359C9.35053 39.7199 9.03803 39.6619 8.66872 39.6619H8.08633V38.8807H8.66872C8.95754 38.8807 9.21086 38.8286 9.42866 38.7244C9.64883 38.6203 9.82047 38.4735 9.94357 38.2841C10.069 38.0947 10.1318 37.8722 10.1318 37.6165C10.1318 37.3703 10.0773 37.156 9.96843 36.9737C9.85953 36.7914 9.70565 36.6494 9.50678 36.5476C9.31029 36.4458 9.07828 36.3949 8.81076 36.3949C8.55981 36.3949 8.32307 36.4411 8.10053 36.5334C7.88036 36.6233 7.70044 36.7547 7.56076 36.9276C7.42108 37.098 7.34532 37.304 7.33349 37.5455H6.48121C6.49542 37.1643 6.61024 36.8305 6.82568 36.544C7.04111 36.2552 7.32283 36.0303 7.67085 35.8693C8.02122 35.7083 8.40593 35.6278 8.82497 35.6278C9.27478 35.6278 9.66067 35.719 9.98264 35.9013C10.3046 36.0812 10.552 36.3191 10.7248 36.6151C10.8976 36.911 10.9841 37.2306 10.9841 37.5739C10.9841 37.9834 10.8763 38.3326 10.6609 38.6214C10.4478 38.9103 10.1578 39.1103 9.79087 39.2216V39.2784C10.2502 39.3542 10.6088 39.5495 10.8669 39.8643C11.1249 40.1768 11.2539 40.5639 11.2539 41.0256C11.2539 41.4209 11.1462 41.776 10.9308 42.0909C10.7177 42.4034 10.4265 42.6496 10.0572 42.8295C9.68789 43.0095 9.26767 43.0994 8.79656 43.0994ZM15.2785 43.0994C14.7435 43.0994 14.2877 42.9538 13.9113 42.6626C13.5349 42.3691 13.2473 41.9441 13.0484 41.3878C12.8495 40.8291 12.7501 40.1544 12.7501 39.3636C12.7501 38.5777 12.8495 37.9065 13.0484 37.3501C13.2496 36.7914 13.5385 36.3653 13.9149 36.0717C14.2937 35.7758 14.7482 35.6278 15.2785 35.6278C15.8088 35.6278 16.2622 35.7758 16.6386 36.0717C17.0174 36.3653 17.3062 36.7914 17.5051 37.3501C17.7063 37.9065 17.8069 38.5777 17.8069 39.3636C17.8069 40.1544 17.7075 40.8291 17.5086 41.3878C17.3098 41.9441 17.0221 42.3691 16.6457 42.6626C16.2693 42.9538 15.8136 43.0994 15.2785 43.0994ZM15.2785 42.3182C15.8088 42.3182 16.2208 42.0625 16.5143 41.5511C16.8079 41.0398 16.9547 40.3106 16.9547 39.3636C16.9547 38.7339 16.8872 38.1977 16.7522 37.755C16.6197 37.3123 16.4279 36.9749 16.177 36.7429C15.9284 36.5109 15.6289 36.3949 15.2785 36.3949C14.7529 36.3949 14.3422 36.6541 14.0463 37.1726C13.7503 37.6887 13.6024 38.419 13.6024 39.3636C13.6024 39.9934 13.6687 40.5284 13.8012 40.9688C13.9338 41.4091 14.1244 41.7441 14.373 41.9737C14.6239 42.2034 14.9258 42.3182 15.2785 42.3182ZM19.4842 35.7273H20.5353L23.0069 41.7642H23.0922L25.5637 35.7273H26.6149V43H25.791V37.4744H25.72L23.4473 43H22.6518L20.3791 37.4744H20.3081V43H19.4842V35.7273Z" fill="#A4A4A4"/>
<path d="M6.81769 82V81.3608L9.21825 78.733C9.49998 78.4252 9.73198 78.1577 9.91428 77.9304C10.0966 77.7008 10.2315 77.4853 10.3191 77.2841C10.4091 77.0805 10.454 76.8674 10.454 76.6449C10.454 76.3892 10.3925 76.1679 10.2694 75.9808C10.1487 75.7938 9.98293 75.6494 9.77223 75.5476C9.56153 75.4458 9.32479 75.3949 9.062 75.3949C8.78265 75.3949 8.5388 75.4529 8.33047 75.5689C8.1245 75.6825 7.9647 75.8423 7.85107 76.0483C7.7398 76.2543 7.68416 76.4957 7.68416 76.7727H6.84609C6.84609 76.3466 6.94434 75.9725 7.14084 75.6506C7.33733 75.3286 7.60485 75.0777 7.9434 74.8977C8.2843 74.7178 8.66664 74.6278 9.09041 74.6278C9.51655 74.6278 9.89415 74.7178 10.2232 74.8977C10.5523 75.0777 10.8103 75.3203 10.9974 75.6257C11.1844 75.9311 11.2779 76.2708 11.2779 76.6449C11.2779 76.9124 11.2294 77.174 11.1323 77.4297C11.0376 77.683 10.8719 77.9659 10.6352 78.2784C10.4008 78.5885 10.0753 78.9673 9.65859 79.4148L8.02507 81.1619V81.2188H11.4058V82H6.81769ZM15.3451 82.0994C14.9284 82.0994 14.5532 82.0166 14.2194 81.8509C13.8856 81.6851 13.6181 81.4579 13.4168 81.169C13.2156 80.8802 13.1055 80.5511 13.0866 80.1818H13.9388C13.972 80.5109 14.1211 80.7831 14.3863 80.9986C14.6538 81.2116 14.9734 81.3182 15.3451 81.3182C15.6434 81.3182 15.9085 81.2483 16.1406 81.1087C16.3749 80.969 16.5584 80.7772 16.691 80.5334C16.8259 80.2872 16.8934 80.009 16.8934 79.6989C16.8934 79.3816 16.8236 79.0987 16.6839 78.8501C16.5466 78.5992 16.3572 78.4015 16.1157 78.2571C15.8742 78.1127 15.5984 78.0393 15.2883 78.0369C15.0657 78.0346 14.8373 78.0689 14.6029 78.1399C14.3685 78.2086 14.1756 78.2973 14.0241 78.4062L13.2002 78.3068L13.6406 74.7273H17.419V75.5085H14.3792L14.1235 77.6534H14.1661C14.3153 77.535 14.5023 77.4368 14.7272 77.3587C14.9521 77.2805 15.1865 77.2415 15.4303 77.2415C15.8754 77.2415 16.2719 77.348 16.62 77.5611C16.9703 77.7718 17.245 78.0606 17.4438 78.4276C17.6451 78.7945 17.7457 79.2135 17.7457 79.6847C17.7457 80.1487 17.6415 80.563 17.4332 80.9276C17.2272 81.2898 16.9431 81.5762 16.5809 81.7869C16.2187 81.9953 15.8067 82.0994 15.3451 82.0994ZM19.4842 74.7273H20.5353L23.0069 80.7642H23.0922L25.5637 74.7273H26.6149V82H25.791V76.4744H25.72L23.4473 82H22.6518L20.3791 76.4744H20.3081V82H19.4842V74.7273Z" fill="#A4A4A4"/>
<path d="M6.65167 121V120.361L9.05224 117.733C9.33396 117.425 9.56597 117.158 9.74826 116.93C9.93055 116.701 10.0655 116.485 10.1531 116.284C10.2431 116.08 10.288 115.867 10.288 115.645C10.288 115.389 10.2265 115.168 10.1034 114.981C9.98264 114.794 9.81692 114.649 9.60622 114.548C9.39551 114.446 9.15877 114.395 8.89599 114.395C8.61663 114.395 8.37279 114.453 8.16445 114.569C7.95849 114.683 7.79869 114.842 7.68505 115.048C7.57378 115.254 7.51815 115.496 7.51815 115.773H6.68008C6.68008 115.347 6.77833 114.973 6.97482 114.651C7.17132 114.329 7.43884 114.078 7.77738 113.898C8.11829 113.718 8.50063 113.628 8.9244 113.628C9.35053 113.628 9.72814 113.718 10.0572 113.898C10.3863 114.078 10.6443 114.32 10.8314 114.626C11.0184 114.931 11.1119 115.271 11.1119 115.645C11.1119 115.912 11.0634 116.174 10.9663 116.43C10.8716 116.683 10.7059 116.966 10.4691 117.278C10.2348 117.589 9.90925 117.967 9.49258 118.415L7.85906 120.162V120.219H11.2397V121H6.65167ZM15.2785 121.099C14.7435 121.099 14.2877 120.954 13.9113 120.663C13.5349 120.369 13.2473 119.944 13.0484 119.388C12.8495 118.829 12.7501 118.154 12.7501 117.364C12.7501 116.578 12.8495 115.906 13.0484 115.35C13.2496 114.791 13.5385 114.365 13.9149 114.072C14.2937 113.776 14.7482 113.628 15.2785 113.628C15.8088 113.628 16.2622 113.776 16.6386 114.072C17.0174 114.365 17.3062 114.791 17.5051 115.35C17.7063 115.906 17.8069 116.578 17.8069 117.364C17.8069 118.154 17.7075 118.829 17.5086 119.388C17.3098 119.944 17.0221 120.369 16.6457 120.663C16.2693 120.954 15.8136 121.099 15.2785 121.099ZM15.2785 120.318C15.8088 120.318 16.2208 120.062 16.5143 119.551C16.8079 119.04 16.9547 118.311 16.9547 117.364C16.9547 116.734 16.8872 116.198 16.7522 115.755C16.6197 115.312 16.4279 114.975 16.177 114.743C15.9284 114.511 15.6289 114.395 15.2785 114.395C14.7529 114.395 14.3422 114.654 14.0463 115.173C13.7503 115.689 13.6024 116.419 13.6024 117.364C13.6024 117.993 13.6687 118.528 13.8012 118.969C13.9338 119.409 14.1244 119.744 14.373 119.974C14.6239 120.203 14.9258 120.318 15.2785 120.318ZM19.4842 113.727H20.5353L23.0069 119.764H23.0922L25.5637 113.727H26.6149V121H25.791V115.474H25.72L23.4473 121H22.6518L20.3791 115.474H20.3081V121H19.4842V113.727Z" fill="#A4A4A4"/>
<path d="M10.7808 152.727V160H9.90007V153.651H9.85746L8.08189 154.83V153.935L9.90007 152.727H10.7808ZM15.3451 160.099C14.9284 160.099 14.5532 160.017 14.2194 159.851C13.8856 159.685 13.6181 159.458 13.4168 159.169C13.2156 158.88 13.1055 158.551 13.0866 158.182H13.9388C13.972 158.511 14.1211 158.783 14.3863 158.999C14.6538 159.212 14.9734 159.318 15.3451 159.318C15.6434 159.318 15.9085 159.248 16.1406 159.109C16.3749 158.969 16.5584 158.777 16.691 158.533C16.8259 158.287 16.8934 158.009 16.8934 157.699C16.8934 157.382 16.8236 157.099 16.6839 156.85C16.5466 156.599 16.3572 156.402 16.1157 156.257C15.8742 156.113 15.5984 156.039 15.2883 156.037C15.0657 156.035 14.8373 156.069 14.6029 156.14C14.3685 156.209 14.1756 156.297 14.0241 156.406L13.2002 156.307L13.6406 152.727H17.419V153.509H14.3792L14.1235 155.653H14.1661C14.3153 155.535 14.5023 155.437 14.7272 155.359C14.9521 155.281 15.1865 155.241 15.4303 155.241C15.8754 155.241 16.2719 155.348 16.62 155.561C16.9703 155.772 17.245 156.061 17.4438 156.428C17.6451 156.795 17.7457 157.214 17.7457 157.685C17.7457 158.149 17.6415 158.563 17.4332 158.928C17.2272 159.29 16.9431 159.576 16.5809 159.787C16.2187 159.995 15.8067 160.099 15.3451 160.099ZM19.4842 152.727H20.5353L23.0069 158.764H23.0922L25.5637 152.727H26.6149V160H25.791V154.474H25.72L23.4473 160H22.6518L20.3791 154.474H20.3081V160H19.4842V152.727Z" fill="#A4A4A4"/>
<path d="M10.6147 191.727V199H9.73406V192.651H9.69144L7.91587 193.83V192.935L9.73406 191.727H10.6147ZM15.2785 199.099C14.7435 199.099 14.2877 198.954 13.9113 198.663C13.5349 198.369 13.2473 197.944 13.0484 197.388C12.8495 196.829 12.7501 196.154 12.7501 195.364C12.7501 194.578 12.8495 193.906 13.0484 193.35C13.2496 192.791 13.5385 192.365 13.9149 192.072C14.2937 191.776 14.7482 191.628 15.2785 191.628C15.8088 191.628 16.2622 191.776 16.6386 192.072C17.0174 192.365 17.3062 192.791 17.5051 193.35C17.7063 193.906 17.8069 194.578 17.8069 195.364C17.8069 196.154 17.7075 196.829 17.5086 197.388C17.3098 197.944 17.0221 198.369 16.6457 198.663C16.2693 198.954 15.8136 199.099 15.2785 199.099ZM15.2785 198.318C15.8088 198.318 16.2208 198.062 16.5143 197.551C16.8079 197.04 16.9547 196.311 16.9547 195.364C16.9547 194.734 16.8872 194.198 16.7522 193.755C16.6197 193.312 16.4279 192.975 16.177 192.743C15.9284 192.511 15.6289 192.395 15.2785 192.395C14.7529 192.395 14.3422 192.654 14.0463 193.173C13.7503 193.689 13.6024 194.419 13.6024 195.364C13.6024 195.993 13.6687 196.528 13.8012 196.969C13.9338 197.409 14.1244 197.744 14.373 197.974C14.6239 198.203 14.9258 198.318 15.2785 198.318ZM19.4842 191.727H20.5353L23.0069 197.764H23.0922L25.5637 191.727H26.6149V199H25.791V193.474H25.72L23.4473 199H22.6518L20.3791 193.474H20.3081V199H19.4842V191.727Z" fill="#A4A4A4"/>
</g>
<g clip-path="url(#clip1_213_152)">
<g clip-path="url(#clip2_213_152)">
<path d="M36.5 234.5V0.5H795.5V234.5H36.5Z" stroke="#C4C4C4" stroke-miterlimit="10"/>
<path d="M36.5 0.5H795.5V39.5H36.5V0.5Z" stroke="#E6E6E6" stroke-miterlimit="10"/>
<path d="M36.5 78.5H795.5V117.5H36.5V78.5Z" stroke="#E6E6E6" stroke-miterlimit="10"/>
<path d="M36.5 156.5H795.5V195.5H36.5V156.5Z" stroke="#E6E6E6" stroke-miterlimit="10"/>
<path d="M36.5 39.5H795.5V78.5H36.5V39.5Z" stroke="#E6E6E6" stroke-miterlimit="10"/>
<path d="M36.5 0.5H195.922V234.5H36.5V0.5Z" stroke="#E6E6E6" stroke-miterlimit="10"/>
<path d="M195.919 0.5H355.342V234.5H195.919V0.5Z" stroke="#E6E6E6" stroke-miterlimit="10"/>
<path d="M514.759 0.5H674.181V234.5H514.759V0.5Z" stroke="#E6E6E6" stroke-miterlimit="10"/>
<path d="M36.5 117.5H795.5V156.5H36.5V117.5Z" stroke="#E6E6E6" stroke-miterlimit="10"/>
<path d="M36.5 195.5H795.5V234.5H36.5V195.5Z" stroke="#E6E6E6" stroke-miterlimit="10"/>
<path d="M36 176.886L45.087 198.566L54.174 188.365L63.598 188.917L72.685 194.982L81.773 190.019L91.196 192.225L99.947 197.74L109.371 194.431L118.458 180.921L127.882 190.019L136.969 199.945L145.719 197.188L155.143 142.32L164.23 194.982L173.317 197.74L182.741 197.188L191.828 201.599L200.916 178.164L209.667 195.809L219.09 158.588L228.178 191.122L237.265 194.431L246.688 201.048L255.776 196.636L264.863 187.538L273.95 197.464L283.037 194.155L292.125 198.566L301.549 185.883L310.636 201.599L319.723 65.01L328.81 195.809L338.234 191.122L347.321 189.468L356.408 189.744L365.495 174.303L374.919 175.13L384.006 191.122L402.181 197.188L411.268 186.987L420.692 198.291L429.779 199.394L438.529 185.883L447.953 182.024L457.714 189.193L466.127 192.225L475.215 198.566L484.638 175.406L493.726 202.427L502.813 173.201L512.237 188.089L521.324 196.636L530.411 191.122L539.498 196.636L556.999 195.534" stroke="#943E5C" stroke-miterlimit="10"/>
<path d="M45.087 199.087L36 176.479V204.152H557V196.055L539.498 197.158L530.411 191.644L521.324 197.158L512.237 188.61L502.813 173.722L493.726 202.948L484.638 175.928L475.215 199.087L466.127 192.746L457.714 189.714L447.953 182.545L438.529 186.405L429.779 199.915L420.692 198.812L411.268 187.508L402.181 197.709L384.006 191.644L374.919 175.652L365.495 174.824L356.408 190.265L347.321 189.989L338.234 191.644L328.81 196.33L319.583 64.152L310.636 202.121L301.549 186.405L292.125 199.087L283.038 194.677L273.95 197.985L264.863 188.059L255.776 197.158L246.688 201.569L237.265 194.952L228.178 191.644L219.09 159.109L209.667 196.33L200.916 178.685L191.828 202.121L182.741 197.709L173.317 198.261L164.23 195.503L155.143 142.841L145.719 197.709L136.969 200.466L127.882 190.54L118.458 181.442L109.371 194.952L99.947 198.261L91.196 192.746L81.773 190.54L72.685 195.503L63.598 189.438L54.174 188.887L45.087 199.087Z" fill="url(#paint0_linear_213_152)"/>
<path d="M36 204.877L50.233 226.557L64.465 216.356L79.225 216.907L93.457 222.972L107.69 218.009L122.45 220.215L136.155 225.73L150.915 222.421L165.147 208.911L179.907 218.009L194.14 227.935L207.845 225.178L222.604 170.31L236.837 222.972L251.069 225.73L265.829 225.178L280.061 229.59L294.295 206.154L308 223.8L322.76 186.578L336.992 219.113L351.225 222.421L365.984 229.038L380.217 224.627L394.449 215.528L408.682 225.454L422.914 222.146L437.147 226.557L451.907 213.874L466.14 229.59L480.372 93L494.604 223.8L509.364 219.113L523.597 217.458L537.829 217.734L552.061 202.293L566.821 203.121L581.053 219.113L609.519 225.178L623.752 214.977L638.512 226.281L652.744 227.384L666.449 213.874L681.209 210.014L696.496 217.183L709.674 220.215L723.906 226.557L738.666 203.397L752.899 230.417L767.132 201.191L781.891 216.08L796.124 224.627L810.356 219.113L824.589 224.627L851.999 223.524" stroke="#1E6378" stroke-miterlimit="10"/>
<path d="M50.233 226.935L36 204.327V232H852V223.903L824.589 225.005L810.356 219.491L796.124 225.005L781.891 216.458L767.132 201.57L752.899 230.796L738.666 203.775L723.906 226.935L709.674 220.594L696.496 217.561L681.209 210.393L666.449 214.252L652.744 227.762L638.512 226.66L623.752 215.356L609.519 225.557L581.053 219.491L566.821 203.499L552.061 202.672L537.829 218.113L523.597 217.837L509.364 219.491L494.604 224.178L480.153 92L466.14 229.968L451.907 214.252L437.147 226.935L422.915 222.524L408.682 225.833L394.449 215.907L380.217 225.005L365.984 229.417L351.225 222.8L336.992 219.491L322.76 186.957L308 224.178L294.295 206.532L280.061 229.968L265.829 225.557L251.069 226.109L236.837 223.351L222.604 170.689L207.845 225.557L194.14 228.314L179.907 218.388L165.147 209.289L150.915 222.8L136.155 226.109L122.45 220.594L107.69 218.388L93.457 223.351L79.225 217.285L64.465 216.734L50.233 226.935Z" fill="url(#paint1_linear_213_152)"/>
<path d="M62.506 203.773L36 197.617V219H795.846V155.492L783.574 195.996L757.068 207.986L743.815 202.801L730.071 184.655H716.818L703.565 209.606L690.311 154.196L676.567 193.08L663.805 172.666L650.552 211.226L637.299 205.069L623.555 206.042L610.302 213.494L597.049 151.928L583.796 209.606L570.052 187.572L556.799 191.46L543.055 205.394L530.292 199.885L516.548 205.394L503.295 186.923L489.551 190.812L476.789 200.533L463.045 19.593L450.283 171.694L437.03 203.449L423.286 176.554L409.542 192.432L395.798 201.505L383.526 198.265L369.291 209.93L356.529 181.415L343.276 170.398L329.041 197.293L315.788 203.449L303.517 212.846L289.773 188.544L275.538 192.432L263.266 188.544L249.522 161.001L236.269 183.035L223.016 189.516L209.272 170L196.019 212.846L183.257 207.338L170.004 196.321L158.714 202.153L143.007 207.986L129.754 172.018L116.991 197.617L102.757 205.718H89.994L76.25 191.46L62.506 203.773Z" fill="url(#paint2_linear_213_152)"/>
<path d="M62.506 204.366L36 198.21V219.593H795.846V156.085L783.574 196.589L757.068 208.579L743.815 203.394L730.071 185.248H716.818L703.565 210.199L690.311 154.789L676.567 193.673L663.805 173.259L650.552 211.819L637.299 205.662L623.555 206.635L610.302 214.087L597.049 152.521L583.796 210.199L570.052 188.165L556.799 192.053L543.055 205.987L530.292 200.478L516.548 205.987L503.295 187.516L489.551 191.405L476.789 201.126L463.045 20.186L450.283 172.287L437.03 204.042L423.286 177.147L409.542 193.025L395.798 202.098L383.526 198.858L369.291 210.523L356.529 182.008L343.276 170.991L329.041 197.886L315.788 204.042L303.517 213.439L289.773 189.137L275.538 193.025L263.266 189.137L249.522 161.594L236.269 183.628L223.016 190.109L209.272 170.593L196.019 213.439L183.257 207.931L170.004 196.914L158.714 202.746L143.007 208.579L129.754 172.611L116.991 198.21L102.757 206.311H89.994L76.25 192.053L62.506 204.366Z" fill="url(#paint3_linear_213_152)"/>
<path d="M36 197.617L62.506 203.773L76.25 191.46L89.994 205.718H102.757L116.991 197.617L129.754 172.018L143.007 207.986L158.714 202.153L170.004 196.321L183.257 207.338L196.019 212.846L209.272 170L223.016 189.516L236.269 183.035L249.522 161.001L263.266 188.544L275.538 192.432L289.773 188.544L303.517 212.846L315.788 203.449L329.041 197.293L343.276 170.398L356.529 181.415L369.291 209.93L383.526 198.265L395.798 201.505L409.542 192.432L423.286 176.554L437.03 203.449L450.283 171.694L463.045 13.593L476.789 200.533L489.551 190.812L503.295 186.923L516.548 205.394L530.292 199.885L543.055 205.394L556.799 191.46L570.052 187.572L583.796 209.606L597.049 151.928L610.302 213.494L623.555 206.042L637.299 205.069L650.552 211.226L663.805 172.666L676.567 193.08L690.311 154.196L703.565 209.606L716.818 184.655H730.071L743.815 202.801L757.068 207.986L783.574 195.996L795.845 155.492" stroke="#EEBC4B" stroke-miterlimit="10"/>
<path d="M36 191.72L49.253 218.092L62.506 206.193L76.25 206.836L89.503 213.911L102.757 208.122L116.5 210.695L129.263 217.128L143.007 213.268L156.26 197.509L170.004 208.122L183.257 219.7L196.019 216.484L209.763 152.483L223.016 213.911L236.269 217.128L250.013 216.484L263.266 221.63L276.52 194.293L289.282 214.876L303.026 171.459L316.279 209.409L329.532 213.268L343.276 220.987L356.529 215.841L369.782 205.228L383.035 216.806L396.288 212.947L409.542 218.092L423.286 203.298L436.539 221.63L449.792 62.303L463.045 214.876L476.789 209.409L490.042 207.479L503.295 207.801L516.548 189.79L530.292 190.755L543.545 209.409L570.052 216.484L583.305 204.585L597.049 217.771L610.302 219.057L623.064 203.298L636.808 198.796L651.043 207.158L663.314 210.695L676.567 218.092L690.311 191.077L703.565 222.595L716.818 188.504L730.562 205.871L743.815 215.841L757.068 209.409L770.321 215.841L795.845 214.555" stroke="#EB5DB1" stroke-miterlimit="10"/>
<path d="M49.253 218.092L36 191.72V224H795.846V214.555L770.321 215.841L757.068 209.409L743.815 215.841L730.562 205.871L716.818 188.504L703.565 222.595L690.311 191.077L676.567 218.092L663.314 210.695L651.043 207.158L636.808 198.796L623.064 203.298L610.302 219.057L597.049 217.771L583.305 204.585L570.052 216.484L543.545 209.409L530.292 190.755L516.548 189.79L503.295 207.801L490.042 207.479L476.789 209.409L463.045 214.876L449.588 60.6949L436.539 221.63L423.286 203.298L409.542 218.092L396.289 212.947L383.035 216.806L369.782 205.228L356.529 215.841L343.276 220.987L329.532 213.268L316.279 209.409L303.026 171.459L289.282 214.876L276.52 194.293L263.266 221.63L250.013 216.484L236.269 217.128L223.016 213.911L209.763 152.483L196.019 216.484L183.257 219.7L170.004 208.122L156.26 197.509L143.007 213.268L129.263 217.128L116.5 210.695L102.757 208.122L89.503 213.911L76.25 206.836L62.506 206.193L49.253 218.092Z" fill="url(#paint4_linear_213_152)"/>
</g>
</g>
<defs>
<linearGradient id="paint0_linear_213_152" x1="-27.152" y1="-2.25727e-05" x2="-27.152" y2="521" gradientUnits="userSpaceOnUse">
<stop/>
<stop offset="1" stop-color="#943E5C" stop-opacity="0"/>
</linearGradient>
<linearGradient id="paint1_linear_213_152" x1="-55" y1="1.91075e-06" x2="-55" y2="816" gradientUnits="userSpaceOnUse">
<stop stop-color="#1E6378"/>
<stop offset="1" stop-color="#1E6378" stop-opacity="0"/>
</linearGradient>
<linearGradient id="paint2_linear_213_152" x1="17.407" y1="1.7763e-05" x2="17.407" y2="759.846" gradientUnits="userSpaceOnUse">
<stop stop-color="#EEBC4B" stop-opacity="0.1936"/>
<stop offset="1" stop-color="#EEBC4B" stop-opacity="0.01"/>
</linearGradient>
<linearGradient id="paint3_linear_213_152" x1="16.814" y1="3.60649e-05" x2="16.814" y2="759.846" gradientUnits="userSpaceOnUse">
<stop stop-color="#EEBC4B" stop-opacity="0.1936"/>
<stop offset="1" stop-color="#EEBC4B" stop-opacity="0.01"/>
</linearGradient>
<linearGradient id="paint4_linear_213_152" x1="-23.695" y1="-4.73049e-05" x2="-23.695" y2="759.846" gradientUnits="userSpaceOnUse">
<stop stop-color="#EB5DB1" stop-opacity="0.1521"/>
<stop offset="1" stop-color="#EB5DB1" stop-opacity="0"/>
</linearGradient>
<clipPath id="clip0_213_152">
<rect width="28" height="235" fill="white"/>
</clipPath>
<clipPath id="clip1_213_152">
<rect width="760" height="235" fill="white" transform="translate(36)"/>
</clipPath>
<clipPath id="clip2_213_152">
<rect width="760" height="235" fill="white" transform="translate(36)"/>
</clipPath>
</defs>
</svg>
