<svg width="12" height="14" viewBox="0 0 12 14" fill="none" xmlns="http://www.w3.org/2000/svg">
<g clip-path="url(#clip0_74_421)">
<g clip-path="url(#clip1_74_421)">
<path d="M6 1C4.81331 1 3.65328 1.35189 2.66658 2.01118C1.67989 2.67047 0.910851 3.60754 0.456725 4.7039C0.0025996 5.80025 -0.11622 7.00666 0.115291 8.17054C0.346802 9.33443 0.918247 10.4035 1.75736 11.2426C2.59648 12.0818 3.66557 12.6532 4.82946 12.8847C5.99335 13.1162 7.19975 12.9974 8.2961 12.5433C9.39246 12.0891 10.3295 11.3201 10.9888 10.3334C11.6481 9.34672 12 8.18669 12 7C11.997 5.40964 11.3638 3.88529 10.2393 2.76073C9.11471 1.63617 7.59036 1.00305 6 1ZM9.23077 7.46154H6C5.87759 7.46154 5.7602 7.41291 5.67364 7.32636C5.58709 7.2398 5.53846 7.12241 5.53846 7V3.76923C5.53846 3.64682 5.58709 3.52943 5.67364 3.44287C5.7602 3.35632 5.87759 3.30769 6 3.30769C6.12241 3.30769 6.2398 3.35632 6.32636 3.44287C6.41291 3.52943 6.46154 3.64682 6.46154 3.76923V6.53846H9.23077C9.35318 6.53846 9.47057 6.58709 9.55713 6.67364C9.64368 6.7602 9.69231 6.87759 9.69231 7C9.69231 7.12241 9.64368 7.2398 9.55713 7.32636C9.47057 7.41291 9.35318 7.46154 9.23077 7.46154Z" fill="#A4A4A4"/>
</g>
</g>
<defs>
<clipPath id="clip0_74_421">
<rect width="12" height="13" fill="white" transform="translate(0 0.5)"/>
</clipPath>
<clipPath id="clip1_74_421">
<rect width="12" height="13" fill="white" transform="translate(0 0.5)"/>
</clipPath>
</defs>
</svg>
