<svg width="21" height="22" viewBox="0 0 21 22" fill="none" xmlns="http://www.w3.org/2000/svg">
<g clip-path="url(#clip0_93_40)">
<path d="M11.8281 11C11.8281 11.1854 11.7731 11.3667 11.6701 11.5208C11.5671 11.675 11.4207 11.7952 11.2494 11.8661C11.0781 11.9371 10.8896 11.9557 10.7077 11.9195C10.5259 11.8833 10.3588 11.794 10.2277 11.6629C10.0966 11.5318 10.0073 11.3648 9.97114 11.1829C9.93497 11.001 9.95354 10.8125 10.0245 10.6412C10.0954 10.4699 10.2156 10.3235 10.3698 10.2205C10.5239 10.1175 10.7052 10.0625 10.8906 10.0625C11.1392 10.0625 11.3777 10.1613 11.5535 10.3371C11.7293 10.5129 11.8281 10.7514 11.8281 11ZM15.8906 10.0625C15.7052 10.0625 15.5239 10.1175 15.3698 10.2205C15.2156 10.3235 15.0954 10.4699 15.0245 10.6412C14.9535 10.8125 14.9349 11.001 14.9711 11.1829C15.0073 11.3648 15.0966 11.5318 15.2277 11.6629C15.3588 11.794 15.5258 11.8833 15.7077 11.9195C15.8896 11.9557 16.0781 11.9371 16.2494 11.8661C16.4207 11.7952 16.5671 11.675 16.6701 11.5208C16.7731 11.3667 16.8281 11.1854 16.8281 11C16.8281 10.7514 16.7293 10.5129 16.5535 10.3371C16.3777 10.1613 16.1392 10.0625 15.8906 10.0625ZM5.89063 10.0625C5.70521 10.0625 5.52395 10.1175 5.36978 10.2205C5.21561 10.3235 5.09545 10.4699 5.02449 10.6412C4.95354 10.8125 4.93497 11.001 4.97114 11.1829C5.00732 11.3648 5.09661 11.5318 5.22772 11.6629C5.35883 11.794 5.52588 11.8833 5.70773 11.9195C5.88959 11.9557 6.07809 11.9371 6.2494 11.8661C6.4207 11.7952 6.56712 11.675 6.67013 11.5208C6.77315 11.3667 6.82813 11.1854 6.82813 11C6.82813 10.7514 6.72936 10.5129 6.55354 10.3371C6.37773 10.1613 6.13927 10.0625 5.89063 10.0625Z" fill="white"/>
</g>
<defs>
<clipPath id="clip0_93_40">
<rect width="20" height="21" fill="white" transform="translate(0.890625 0.5)"/>
</clipPath>
</defs>
</svg>
