<svg width="25" height="25" viewBox="0 0 25 25" fill="none" xmlns="http://www.w3.org/2000/svg">
<path d="M12.9722 8.03555L13.0203 8.81855L12.2242 8.72255C9.32925 8.35555 6.79925 7.10855 4.65125 5.01455L3.60125 3.97555L3.33125 4.74255C2.75825 6.45255 3.12425 8.25955 4.31725 9.47355C4.95425 10.1455 4.81125 10.2415 3.71325 9.84155C3.33125 9.71355 2.99725 9.61755 2.96525 9.66555C2.85425 9.77755 3.23525 11.2325 3.53825 11.8075C3.95125 12.6075 4.79525 13.3895 5.71825 13.8535L6.49725 14.2205L5.57425 14.2365C4.68425 14.2365 4.65125 14.2525 4.74725 14.5885C5.06525 15.6285 6.32225 16.7305 7.72225 17.2095L8.70825 17.5455L7.84925 18.0575C6.54889 18.8005 5.08352 19.2068 3.58625 19.2395C2.87025 19.2555 2.28125 19.3195 2.28125 19.3675C2.28125 19.5275 4.22125 20.4225 5.35125 20.7745C8.74125 21.8135 12.7653 21.3655 15.7882 19.5915C17.9362 18.3285 20.0833 15.8195 21.0863 13.3895C21.6263 12.0955 22.1682 9.72955 22.1682 8.59455C22.1682 7.85955 22.2153 7.76455 23.1063 6.88455C23.6313 6.37355 24.1242 5.81455 24.2202 5.65455C24.3792 5.35055 24.3633 5.35055 23.5522 5.62155C22.1992 6.10155 22.0082 6.03755 22.6772 5.31855C23.1702 4.80655 23.7582 3.87955 23.7582 3.60855C23.7582 3.55955 23.5203 3.63955 23.2493 3.78355C22.9633 3.94355 22.3273 4.18355 21.8493 4.32755L20.9902 4.59855L20.2103 4.07155C19.7812 3.78355 19.1763 3.46455 18.8582 3.36855C18.0472 3.14455 16.8063 3.17655 16.0743 3.43255C14.0863 4.15155 12.8293 6.00555 12.9722 8.03555Z" fill="#535768"/>
</svg>
