<svg width="25" height="24" viewBox="0 0 25 24" fill="none" xmlns="http://www.w3.org/2000/svg">
<g clip-path="url(#clip0_213_382)">
<g clip-path="url(#clip1_213_382)">
<path d="M11.2655 3.09803C11.9583 2.7196 12.8002 2.7196 13.4931 3.09803L20.8984 7.1368C21.6842 7.5659 21.6842 8.67639 20.8984 9.10549L13.4931 13.1443C12.8002 13.5227 11.9583 13.5227 11.2655 13.1443L3.86011 9.10549C3.07437 8.67639 3.07437 7.5659 3.86011 7.1368L11.2655 3.09803ZM20.8984 15.863L13.4931 19.9018C12.8002 20.2803 11.9583 20.2803 11.2655 19.9018L3.86011 15.863C3.14893 15.4745 3.08126 14.5284 3.65708 14.034C3.71787 14.0858 3.78555 14.1331 3.86011 14.1737L11.2655 18.2124C11.9583 18.5909 12.8002 18.5909 13.4931 18.2124L20.8984 14.1737C20.973 14.1331 21.0407 14.0858 21.1015 14.034C21.6773 14.5284 21.6096 15.4745 20.8984 15.863ZM20.926 12.482L13.6204 16.5174C12.9287 16.8992 12.0868 16.9037 11.3917 16.5287L3.88878 12.4876C3.17187 12.1014 3.1019 11.1508 3.68002 10.6552C3.74196 10.7082 3.81193 10.7566 3.88878 10.7983L11.3917 14.8393C12.0868 15.2143 12.9287 15.2098 13.6204 14.828L20.926 10.7926C20.9983 10.7521 21.0648 10.7059 21.1233 10.6552C21.6991 11.1485 21.6326 12.0913 20.926 12.482Z" fill="white"/>
</g>
</g>
<defs>
<clipPath id="clip0_213_382">
<rect width="19" height="19" fill="white" transform="translate(2.89062 2)"/>
</clipPath>
<clipPath id="clip1_213_382">
<rect width="19" height="19" fill="white" transform="translate(2.89062 2)"/>
</clipPath>
</defs>
</svg>
