<svg width="109" height="36" viewBox="0 0 109 36" fill="none" xmlns="http://www.w3.org/2000/svg">
<rect x="0.5" width="108" height="36" rx="6" fill="#F3F3F3"/>
<rect x="4.5" y="4" width="28" height="28" rx="6" fill="#606266"/>
<g clip-path="url(#clip0_74_509)">
<g clip-path="url(#clip1_74_509)">
<path fill-rule="evenodd" clip-rule="evenodd" d="M20.316 12.493C20.234 12.3121 20.0528 12.1967 19.8541 12.1993C19.6555 12.2018 19.4772 12.3216 19.3999 12.5046L17.2417 17.6133L16.4268 15.9463C16.3436 15.7762 16.1715 15.6676 15.9821 15.6659C15.7927 15.6642 15.6186 15.7697 15.5324 15.9383L11.9884 22.8716C11.9092 23.0266 11.9162 23.2117 12.0071 23.3602C12.098 23.5087 12.2595 23.5992 12.4336 23.5992H19.3669H19.3699H24.5677C24.7376 23.5992 24.8958 23.513 24.9879 23.3702C25.0799 23.2275 25.0932 23.0478 25.0232 22.893L20.316 12.493ZM19.679 22.5992H23.7926L19.8762 13.9467L17.824 18.8046L19.679 22.5992ZM17.3081 20.026L18.566 22.5992H16.221L17.3081 20.026ZM16.7257 18.8347L15.1354 22.5992H13.2507L15.9676 17.284L16.7257 18.8347Z" fill="white"/>
</g>
</g>
<g clip-path="url(#clip2_74_509)">
<path fill-rule="evenodd" clip-rule="evenodd" d="M54.1875 10.625C54.1875 10.3489 54.4114 10.125 54.6875 10.125H59.0625C59.3386 10.125 59.5625 10.3489 59.5625 10.625V23.75C59.5625 24.0261 59.3386 24.25 59.0625 24.25H56.9464H56.9444H50.3835C50.3603 24.2533 50.3366 24.255 50.3125 24.255C50.2884 24.255 50.2647 24.2533 50.2415 24.25H45.9375C45.6614 24.25 45.4375 24.0261 45.4375 23.75V19.9372V18.9997V14.3122C45.4375 14.036 45.6614 13.8122 45.9375 13.8122H49.8125V13.375C49.8125 13.0989 50.0364 12.875 50.3125 12.875H54.1875V10.625ZM49.8125 14.8122H46.4375V18.4997H49.8125V14.8122ZM49.8125 19.4997H46.4375V19.9372V23.25H49.8125V19.4997ZM50.8125 23.25V18.9997V14.3122V13.875H54.1875V23.25H50.8125ZM55.1875 23.25V13.375V11.125H58.5625V23.25H55.1875Z" fill="#1F2023"/>
</g>
<g clip-path="url(#clip3_74_509)">
<g clip-path="url(#clip4_74_509)">
<path fill-rule="evenodd" clip-rule="evenodd" d="M93.8536 13.1464C94.0488 13.3417 94.0488 13.6583 93.8536 13.8536L83.8536 23.8536C83.6583 24.0488 83.3417 24.0488 83.1464 23.8536C82.9512 23.6583 82.9512 23.3417 83.1464 23.1464L93.1464 13.1464C93.3417 12.9512 93.6583 12.9512 93.8536 13.1464ZM85 14C84.4477 14 84 14.4477 84 15C84 15.5523 84.4477 16 85 16C85.5523 16 86 15.5523 86 15C86 14.4477 85.5523 14 85 14ZM83 15C83 13.8954 83.8954 13 85 13C86.1046 13 87 13.8954 87 15C87 16.1046 86.1046 17 85 17C83.8954 17 83 16.1046 83 15ZM91 22C91 21.4477 91.4477 21 92 21C92.5523 21 93 21.4477 93 22C93 22.5523 92.5523 23 92 23C91.4477 23 91 22.5523 91 22ZM92 20C90.8954 20 90 20.8954 90 22C90 23.1046 90.8954 24 92 24C93.1046 24 94 23.1046 94 22C94 20.8954 93.1046 20 92 20Z" fill="#1F2023"/>
</g>
</g>
<defs>
<clipPath id="clip0_74_509">
<rect width="14" height="12" fill="white" transform="translate(11.5 12)"/>
</clipPath>
<clipPath id="clip1_74_509">
<rect width="14" height="12" fill="white" transform="translate(11.5 12)"/>
</clipPath>
<clipPath id="clip2_74_509">
<rect width="16" height="15" fill="white" transform="translate(44.5 10)"/>
</clipPath>
<clipPath id="clip3_74_509">
<rect width="12" height="11" fill="white" transform="translate(82.5 13)"/>
</clipPath>
<clipPath id="clip4_74_509">
<rect width="12" height="11" fill="white" transform="translate(82.5 13)"/>
</clipPath>
</defs>
</svg>
