<svg width="907" height="241" viewBox="0 0 907 241" fill="none" xmlns="http://www.w3.org/2000/svg">
<g filter="url(#filter0_d_43_204)">
<path d="M4 116.5C4 52.1588 56.1588 0 120.5 0H786.5C850.841 0 903 52.1588 903 116.5V116.5C903 180.841 850.841 233 786.5 233H120.5C56.1588 233 4 180.841 4 116.5V116.5Z" fill="white"/>
<path d="M120.5 0.5H786.5C850.565 0.5 902.5 52.435 902.5 116.5C902.5 180.565 850.565 232.5 786.5 232.5H120.5C56.435 232.5 4.5 180.565 4.5 116.5C4.5 52.435 56.435 0.5 120.5 0.5Z" stroke="black"/>
</g>
<defs>
<filter id="filter0_d_43_204" x="0" y="0" width="907" height="241" filterUnits="userSpaceOnUse" color-interpolation-filters="sRGB">
<feFlood flood-opacity="0" result="BackgroundImageFix"/>
<feColorMatrix in="SourceAlpha" type="matrix" values="0 0 0 0 0 0 0 0 0 0 0 0 0 0 0 0 0 0 127 0" result="hardAlpha"/>
<feOffset dy="4"/>
<feGaussianBlur stdDeviation="2"/>
<feComposite in2="hardAlpha" operator="out"/>
<feColorMatrix type="matrix" values="0 0 0 0 0 0 0 0 0 0 0 0 0 0 0 0 0 0 0.25 0"/>
<feBlend mode="normal" in2="BackgroundImageFix" result="effect1_dropShadow_43_204"/>
<feBlend mode="normal" in="SourceGraphic" in2="effect1_dropShadow_43_204" result="shape"/>
</filter>
</defs>
</svg>
